<?xml version="1.0" encoding="UTF-8" standalone="no"?>
<!-- Created with Inkscape (http://www.inkscape.org/) -->

<svg
   xmlns:dc="http://purl.org/dc/elements/1.1/"
   xmlns:cc="http://creativecommons.org/ns#"
   xmlns:rdf="http://www.w3.org/1999/02/22-rdf-syntax-ns#"
   xmlns:svg="http://www.w3.org/2000/svg"
   xmlns="http://www.w3.org/2000/svg"
   xmlns:sodipodi="http://sodipodi.sourceforge.net/DTD/sodipodi-0.dtd"
   xmlns:inkscape="http://www.inkscape.org/namespaces/inkscape"
   id="svg5478"
   version="1.1"
   inkscape:version="0.91 r13725"
   xml:space="preserve"
   width="120"
   height="120"
   viewBox="0 0 120 120"
   sodipodi:docname="icon.svg"><metadata
     id="metadata5484"><rdf:RDF><cc:Work
         rdf:about=""><dc:format>image/svg+xml</dc:format><dc:type
           rdf:resource="http://purl.org/dc/dcmitype/StillImage" /><dc:title></dc:title></cc:Work></rdf:RDF></metadata><defs
     id="defs5482"><clipPath
       clipPathUnits="userSpaceOnUse"
       id="clipPath5492"><path
         d="M 0,96 96,96 96,0 0,0 0,96 Z"
         id="path5494"
         inkscape:connector-curvature="0" /></clipPath><clipPath
       clipPathUnits="userSpaceOnUse"
       id="clipPath5516"><path
         d="m 13.2871,64.2036 24.0596,0 0,-24.06 -24.0596,0 0,24.06 z"
         id="path5518"
         inkscape:connector-curvature="0" /></clipPath><clipPath
       clipPathUnits="userSpaceOnUse"
       id="clipPath5532"><path
         d="m 9.03223,64.6113 28.62837,0 0,-28.6299 -28.62837,0 0,28.6299 z"
         id="path5534"
         inkscape:connector-curvature="0" /></clipPath><clipPath
       clipPathUnits="userSpaceOnUse"
       id="clipPath5548"><path
         d="m 9.83887,58.8892 23.38963,0 0,-24.3072 -23.38963,0 0,24.3072 z"
         id="path5550"
         inkscape:connector-curvature="0" /></clipPath><clipPath
       clipPathUnits="userSpaceOnUse"
       id="clipPath5564"><path
         d="m 9.83887,58.8892 23.38963,0 0,-24.3072 -23.38963,0 0,24.3072 z"
         id="path5566"
         inkscape:connector-curvature="0" /></clipPath><clipPath
       clipPathUnits="userSpaceOnUse"
       id="clipPath5604"><path
         d="m 58.6533,64.3213 24.0615,0 0,-24.0606 -24.0615,0 0,24.0606 z"
         id="path5606"
         inkscape:connector-curvature="0" /></clipPath><clipPath
       clipPathUnits="userSpaceOnUse"
       id="clipPath5620"><path
         d="m 58.3389,64.7285 28.6299,0 0,-28.6289 -28.6299,0 0,28.6289 z"
         id="path5622"
         inkscape:connector-curvature="0" /></clipPath><clipPath
       clipPathUnits="userSpaceOnUse"
       id="clipPath5636"><path
         d="m 62.7705,59.0068 23.3906,0 0,-24.3076 -23.3906,0 0,24.3076 z"
         id="path5638"
         inkscape:connector-curvature="0" /></clipPath><clipPath
       clipPathUnits="userSpaceOnUse"
       id="clipPath5652"><path
         d="m 62.7705,59.0068 23.3906,0 0,-24.3076 -23.3906,0 0,24.3076 z"
         id="path5654"
         inkscape:connector-curvature="0" /></clipPath></defs><sodipodi:namedview
     pagecolor="#ffffff"
     bordercolor="#666666"
     borderopacity="1"
     objecttolerance="10"
     gridtolerance="10"
     guidetolerance="10"
     inkscape:pageopacity="0"
     inkscape:pageshadow="2"
     inkscape:window-width="640"
     inkscape:window-height="480"
     id="namedview5480"
     showgrid="false"
     inkscape:zoom="1.9666667"
     inkscape:cx="60"
     inkscape:cy="60"
     inkscape:window-x="0"
     inkscape:window-y="0"
     inkscape:window-maximized="0"
     inkscape:current-layer="g5486" /><g
     id="g5486"
     inkscape:groupmode="layer"
     inkscape:label="icon"
     transform="matrix(1.25,0,0,-1.25,0,120)"><g
       id="g5488"><g
         id="g5490"
         clip-path="url(#clipPath5492)"><g
           id="g5496"
           transform="translate(36.4067,45.5684)"><path
             d="m 0,0 c 0,-8.889 -7.204,-16.092 -16.092,-16.092 -8.887,0 -16.093,7.203 -16.093,16.092 0,8.888 7.206,16.094 16.093,16.094 C -7.204,16.094 0,8.888 0,0"
             style="fill:#77a8d6;fill-opacity:1;fill-rule:nonzero;stroke:none"
             id="path5498"
             inkscape:connector-curvature="0" /></g><g
           id="g5500"
           transform="translate(36.4067,45.5684)"><path
             d="m 0,0 c 0,-8.889 -7.204,-16.092 -16.092,-16.092 -8.887,0 -16.093,7.203 -16.093,16.092 0,8.888 7.206,16.094 16.093,16.094 C -7.204,16.094 0,8.888 0,0 Z"
             style="fill:none;stroke:#000000;stroke-width:6.89699984;stroke-linecap:butt;stroke-linejoin:miter;stroke-miterlimit:10;stroke-dasharray:none;stroke-opacity:1"
             id="path5502"
             inkscape:connector-curvature="0" /></g><g
           id="g5504"
           transform="translate(36.4067,45.5684)"><path
             d="m 0,0 c 0,-8.889 -7.204,-16.092 -16.092,-16.092 -8.887,0 -16.093,7.203 -16.093,16.092 0,8.888 7.206,16.094 16.093,16.094 C -7.204,16.094 0,8.888 0,0"
             style="fill:#3e78a3;fill-opacity:1;fill-rule:nonzero;stroke:none"
             id="path5506"
             inkscape:connector-curvature="0" /></g><g
           id="g5508"
           transform="translate(33.5854,53.4395)"><path
             d="m 0,0 c 0,-4.357 -3.533,-7.889 -7.889,-7.889 -4.357,0 -7.889,3.532 -7.889,7.889 0,4.358 3.532,7.889 7.889,7.889 C -3.533,7.889 0,4.358 0,0"
             style="fill:#00324b;fill-opacity:1;fill-rule:nonzero;stroke:none"
             id="path5510"
             inkscape:connector-curvature="0" /></g><g
           id="g5512"><g
             id="g5514" /><g
             id="g5520"><g
               clip-path="url(#clipPath5516)"
               id="g5522"
               style="opacity:0.39999402"><g
                 transform="translate(36.0928,52.1743)"
                 id="g5524"><path
                   d="m 0,0 c 0,-5.952 -4.825,-10.777 -10.776,-10.777 -5.952,0 -10.776,4.825 -10.776,10.777 0,5.951 4.824,10.775 10.776,10.775 C -4.825,10.775 0,5.951 0,0 Z"
                   style="fill:none;stroke:#99999a;stroke-width:2.5079999;stroke-linecap:butt;stroke-linejoin:miter;stroke-miterlimit:10;stroke-dasharray:none;stroke-opacity:1"
                   id="path5526"
                   inkscape:connector-curvature="0" /></g></g></g></g><g
           id="g5528"><g
             id="g5530" /><g
             id="g5536"><g
               clip-path="url(#clipPath5532)"
               id="g5538"
               style="opacity:0.39999402"><g
                 transform="translate(36.4067,50.2964)"
                 id="g5540"><path
                   d="m 0,0 c 0,-7.214 -5.846,-13.061 -13.06,-13.061 -7.212,0 -13.061,5.847 -13.061,13.061 0,7.212 5.849,13.061 13.061,13.061 C -5.846,13.061 0,7.212 0,0 Z"
                   style="fill:none;stroke:#cfd3d6;stroke-width:2.5079999;stroke-linecap:butt;stroke-linejoin:miter;stroke-miterlimit:10;stroke-dasharray:none;stroke-opacity:1"
                   id="path5542"
                   inkscape:connector-curvature="0" /></g></g></g></g><g
           id="g5544"><g
             id="g5546" /><g
             id="g5552"><g
               clip-path="url(#clipPath5548)"
               id="g5554"
               style="opacity:0.39999402"><g
                 transform="translate(29.5166,56.8389)"
                 id="g5556"><path
                   d="m 0,0 c 4.72,-3.729 4.972,-11.274 0.564,-16.855 -4.409,-5.582 -11.809,-7.08 -16.529,-3.352 -4.72,3.729 -4.974,11.276 -0.563,16.856 C -12.12,2.229 -4.721,3.73 0,0"
                   style="fill:#ffffff;fill-opacity:1;fill-rule:nonzero;stroke:none"
                   id="path5558"
                   inkscape:connector-curvature="0" /></g></g></g></g><g
           id="g5560"><g
             id="g5562" /><g
             id="g5568"><g
               clip-path="url(#clipPath5564)"
               id="g5570"
               style="opacity:0.30000299"><g
                 transform="translate(29.5166,56.8389)"
                 id="g5572"><path
                   d="m 0,0 c 4.72,-3.729 4.972,-11.274 0.564,-16.855 -4.409,-5.582 -11.809,-7.08 -16.529,-3.352 -4.72,3.729 -4.974,11.276 -0.563,16.856 C -12.12,2.229 -4.721,3.73 0,0"
                   style="fill:#ffffff;fill-opacity:1;fill-rule:nonzero;stroke:none"
                   id="path5574"
                   inkscape:connector-curvature="0" /></g></g></g></g><g
           id="g5576"
           transform="translate(36.4067,45.5684)"><path
             d="m 0,0 c 0,-8.889 -7.204,-16.092 -16.092,-16.092 -8.887,0 -16.093,7.203 -16.093,16.092 0,8.888 7.206,16.094 16.093,16.094 C -7.204,16.094 0,8.888 0,0 Z"
             style="fill:none;stroke:#000000;stroke-width:6.89699984;stroke-linecap:butt;stroke-linejoin:miter;stroke-miterlimit:10;stroke-dasharray:none;stroke-opacity:1"
             id="path5578"
             inkscape:connector-curvature="0" /></g><g
           id="g5580"
           transform="translate(15.9121,53.938)"><path
             d="m 0,0 c 0,-0.759 -0.612,-1.373 -1.372,-1.373 -0.757,0 -1.372,0.614 -1.372,1.373 0,0.758 0.615,1.373 1.372,1.373 C -0.612,1.373 0,0.758 0,0"
             style="fill:#ffffff;fill-opacity:1;fill-rule:nonzero;stroke:none"
             id="path5582"
             inkscape:connector-curvature="0" /></g><g
           id="g5584"
           transform="translate(59.5928,45.6865)"><path
             d="m 0,0 c 0,-8.889 7.205,-16.093 16.092,-16.093 8.889,0 16.095,7.204 16.095,16.093 0,8.888 -7.206,16.094 -16.095,16.094 C 7.205,16.094 0,8.888 0,0"
             style="fill:#77a8d6;fill-opacity:1;fill-rule:nonzero;stroke:none"
             id="path5586"
             inkscape:connector-curvature="0" /></g><g
           id="g5588"
           transform="translate(59.5928,45.6865)"><path
             d="m 0,0 c 0,-8.889 7.205,-16.093 16.092,-16.093 8.889,0 16.095,7.204 16.095,16.093 0,8.888 -7.206,16.094 -16.095,16.094 C 7.205,16.094 0,8.888 0,0 Z"
             style="fill:none;stroke:#000000;stroke-width:6.89699984;stroke-linecap:butt;stroke-linejoin:miter;stroke-miterlimit:10;stroke-dasharray:none;stroke-opacity:1"
             id="path5590"
             inkscape:connector-curvature="0" /></g><g
           id="g5592"
           transform="translate(59.5928,45.6865)"><path
             d="m 0,0 c 0,-8.889 7.205,-16.093 16.092,-16.093 8.889,0 16.095,7.204 16.095,16.093 0,8.888 -7.206,16.094 -16.095,16.094 C 7.205,16.094 0,8.888 0,0"
             style="fill:#3e78a3;fill-opacity:1;fill-rule:nonzero;stroke:none"
             id="path5594"
             inkscape:connector-curvature="0" /></g><g
           id="g5596"
           transform="translate(62.416,53.5566)"><path
             d="m 0,0 c 0,-4.356 3.532,-7.889 7.888,-7.889 4.357,0 7.889,3.533 7.889,7.889 0,4.358 -3.532,7.889 -7.889,7.889 C 3.532,7.889 0,4.358 0,0"
             style="fill:#00324b;fill-opacity:1;fill-rule:nonzero;stroke:none"
             id="path5598"
             inkscape:connector-curvature="0" /></g><g
           id="g5600"><g
             id="g5602" /><g
             id="g5608"><g
               clip-path="url(#clipPath5604)"
               id="g5610"
               style="opacity:0.39999402"><g
                 transform="translate(59.9072,52.2905)"
                 id="g5612"><path
                   d="m 0,0 c 0,-5.951 4.824,-10.776 10.776,-10.776 5.952,0 10.778,4.825 10.778,10.776 0,5.952 -4.826,10.777 -10.778,10.777 C 4.824,10.777 0,5.952 0,0 Z"
                   style="fill:none;stroke:#99999a;stroke-width:2.5079999;stroke-linecap:butt;stroke-linejoin:miter;stroke-miterlimit:10;stroke-dasharray:none;stroke-opacity:1"
                   id="path5614"
                   inkscape:connector-curvature="0" /></g></g></g></g><g
           id="g5616"><g
             id="g5618" /><g
             id="g5624"><g
               clip-path="url(#clipPath5620)"
               id="g5626"
               style="opacity:0.39999402"><g
                 transform="translate(59.5928,50.4141)"
                 id="g5628"><path
                   d="m 0,0 c 0,-7.213 5.849,-13.061 13.061,-13.061 7.213,0 13.061,5.848 13.061,13.061 0,7.212 -5.848,13.061 -13.061,13.061 C 5.849,13.061 0,7.212 0,0 Z"
                   style="fill:none;stroke:#cfd3d6;stroke-width:2.5079999;stroke-linecap:butt;stroke-linejoin:miter;stroke-miterlimit:10;stroke-dasharray:none;stroke-opacity:1"
                   id="path5630"
                   inkscape:connector-curvature="0" /></g></g></g></g><g
           id="g5632"><g
             id="g5634" /><g
             id="g5640"><g
               clip-path="url(#clipPath5636)"
               id="g5642"
               style="opacity:0.39999402"><g
                 transform="translate(66.4844,56.9561)"
                 id="g5644"><path
                   d="m 0,0 c -4.723,-3.729 -4.974,-11.275 -0.565,-16.854 4.409,-5.583 11.809,-7.082 16.529,-3.353 4.721,3.728 4.973,11.276 0.563,16.857 C 12.12,2.229 4.719,3.731 0,0"
                   style="fill:#ffffff;fill-opacity:1;fill-rule:nonzero;stroke:none"
                   id="path5646"
                   inkscape:connector-curvature="0" /></g></g></g></g><g
           id="g5648"><g
             id="g5650" /><g
             id="g5656"><g
               clip-path="url(#clipPath5652)"
               id="g5658"
               style="opacity:0.30000299"><g
                 transform="translate(66.4844,56.9561)"
                 id="g5660"><path
                   d="m 0,0 c -4.723,-3.729 -4.974,-11.275 -0.565,-16.854 4.409,-5.583 11.809,-7.082 16.529,-3.353 4.721,3.728 4.973,11.276 0.563,16.857 C 12.12,2.229 4.719,3.731 0,0"
                   style="fill:#ffffff;fill-opacity:1;fill-rule:nonzero;stroke:none"
                   id="path5662"
                   inkscape:connector-curvature="0" /></g></g></g></g><g
           id="g5664"
           transform="translate(59.5928,45.6865)"><path
             d="m 0,0 c 0,-8.889 7.205,-16.093 16.092,-16.093 8.889,0 16.095,7.204 16.095,16.093 0,8.888 -7.206,16.094 -16.095,16.094 C 7.205,16.094 0,8.888 0,0 Z"
             style="fill:none;stroke:#000000;stroke-width:6.89699984;stroke-linecap:butt;stroke-linejoin:miter;stroke-miterlimit:10;stroke-dasharray:none;stroke-opacity:1"
             id="path5666"
             inkscape:connector-curvature="0" /></g><g
           id="g5668"
           transform="translate(66.5303,52.5654)"><path
             d="m 0,0 c 0,-0.759 0.613,-1.373 1.373,-1.373 0.756,0 1.372,0.614 1.372,1.373 0,0.758 -0.616,1.373 -1.372,1.373 C 0.613,1.373 0,0.758 0,0"
             style="fill:#ffffff;fill-opacity:1;fill-rule:nonzero;stroke:none"
             id="path5670"
             inkscape:connector-curvature="0" /></g><g
           id="g5672"
           transform="translate(40.5454,63.9048)"><path
             d="m 0,0 c 0.938,-4.646 2.339,-15.021 -5.586,-15.021 -3.371,0 -5.307,11.274 -11.803,11.937 -8.78,0.893 -18.934,-8.493 -18.934,-5.767 0,4.74 13.022,13.276 20.947,13.276 C -7.452,4.425 -0.893,4.43 0,0"
             style="fill:#000000;fill-opacity:1;fill-rule:nonzero;stroke:none"
             id="path5674"
             inkscape:connector-curvature="0" /></g><g
           id="g5676"
           transform="translate(55.4561,63.8867)"><path
             d="m 0,0 c -0.938,-4.647 -2.34,-15.021 5.586,-15.021 3.368,0 5.306,11.275 11.8,11.936 8.781,0.894 18.937,-8.491 18.937,-5.767 C 36.323,-4.11 23.3,4.426 15.375,4.426 7.451,4.426 0.892,4.43 0,0"
             style="fill:#000000;fill-opacity:1;fill-rule:nonzero;stroke:none"
             id="path5678"
             inkscape:connector-curvature="0" /></g><g
           id="g5680"
           transform="translate(59.7031,48.0015)"><path
             d="M 0,0 C 0,-7.036 -5.287,7.336 -11.805,7.336 -18.324,7.336 -23.61,-7.036 -23.61,0 c 0,7.037 5.286,12.741 11.805,12.741 C -5.287,12.741 0,7.037 0,0"
             style="fill:#000000;fill-opacity:1;fill-rule:nonzero;stroke:none"
             id="path5682"
             inkscape:connector-curvature="0" /></g><g
           id="g5684"
           transform="translate(53.3301,60.7427)"><path
             d="m 0,0 c 0,-3.001 -2.434,-5.432 -5.432,-5.432 -2.999,0 -5.431,2.431 -5.431,5.432 0,3 2.432,5.43 5.431,5.43 C -2.434,5.43 0,3 0,0"
             style="fill:#b3b3b3;fill-opacity:1;fill-rule:nonzero;stroke:none"
             id="path5686"
             inkscape:connector-curvature="0" /></g><g
           id="g5688"
           transform="translate(53.3301,60.7427)"><path
             d="m 0,0 c 0,-3.001 -2.434,-5.432 -5.432,-5.432 -2.999,0 -5.431,2.431 -5.431,5.432 0,3 2.432,5.43 5.431,5.43 C -2.434,5.43 0,3 0,0 Z"
             style="fill:none;stroke:#000000;stroke-width:4.38899994;stroke-linecap:butt;stroke-linejoin:miter;stroke-miterlimit:10;stroke-dasharray:none;stroke-opacity:1"
             id="path5690"
             inkscape:connector-curvature="0" /></g><g
           id="g5692"
           transform="translate(51.9658,60.7427)"><path
             d="m 0,0 c 0,-2.248 -1.822,-4.069 -4.067,-4.069 -2.247,0 -4.07,1.821 -4.07,4.069 0,2.246 1.823,4.067 4.07,4.067 C -1.822,4.067 0,2.246 0,0 Z"
             style="fill:none;stroke:#6a7982;stroke-width:0.62699997;stroke-linecap:butt;stroke-linejoin:miter;stroke-miterlimit:10;stroke-dasharray:none;stroke-opacity:1"
             id="path5694"
             inkscape:connector-curvature="0" /></g><g
           id="g5696"
           transform="translate(59.5928,45.5508)"><path
             d="m 0,0 c 0,-8.888 7.205,-16.093 16.092,-16.093 8.889,0 16.095,7.205 16.095,16.093 0,8.888 -7.206,16.093 -16.095,16.093 C 7.205,16.093 0,8.888 0,0 Z"
             style="fill:none;stroke:#939393;stroke-width:1.25399995;stroke-linecap:butt;stroke-linejoin:miter;stroke-miterlimit:10;stroke-dasharray:none;stroke-opacity:1"
             id="path5698"
             inkscape:connector-curvature="0" /></g><g
           id="g5700"
           transform="translate(57.8037,45.5498)"><path
             d="m 0,0 c 0,-9.874 8.007,-17.88 17.881,-17.88 9.876,0 17.882,8.006 17.882,17.88 0,9.876 -8.006,17.882 -17.882,17.882 C 8.007,17.882 0,9.876 0,0 Z"
             style="fill:none;stroke:#4e4e4e;stroke-width:0.62699997;stroke-linecap:butt;stroke-linejoin:miter;stroke-miterlimit:10;stroke-dasharray:none;stroke-opacity:1"
             id="path5702"
             inkscape:connector-curvature="0" /></g><g
           id="g5704"
           transform="translate(4.2222,45.5508)"><path
             d="m 0,0 c 0,-8.888 7.206,-16.093 16.093,-16.093 8.887,0 16.092,7.205 16.092,16.093 0,8.888 -7.205,16.093 -16.092,16.093 C 7.206,16.093 0,8.888 0,0 Z"
             style="fill:none;stroke:#939393;stroke-width:1.25399995;stroke-linecap:butt;stroke-linejoin:miter;stroke-miterlimit:10;stroke-dasharray:none;stroke-opacity:1"
             id="path5706"
             inkscape:connector-curvature="0" /></g><g
           id="g5708"
           transform="translate(2.4336,45.5498)"><path
             d="m 0,0 c 0,-9.874 8.006,-17.88 17.881,-17.88 9.875,0 17.882,8.006 17.882,17.88 0,9.876 -8.007,17.882 -17.882,17.882 C 8.006,17.882 0,9.876 0,0 Z"
             style="fill:none;stroke:#4e4e4e;stroke-width:0.62699997;stroke-linecap:butt;stroke-linejoin:miter;stroke-miterlimit:10;stroke-dasharray:none;stroke-opacity:1"
             id="path5710"
             inkscape:connector-curvature="0" /></g><g
           id="g5712"
           transform="translate(13.5967,50.729)"><path
             d="m 0,0 c -0.855,-1.139 -2.024,-1.707 -2.611,-1.266 -0.586,0.44 -0.37,1.722 0.485,2.86 0.855,1.138 2.023,1.705 2.61,1.265 C 1.071,2.418 0.854,1.138 0,0"
             style="fill:#ffffff;fill-opacity:1;fill-rule:nonzero;stroke:none"
             id="path5714"
             inkscape:connector-curvature="0" /></g><g
           id="g5716"
           transform="translate(67.0879,49.1646)"><path
             d="m 0,0 c -0.856,-1.139 -2.023,-1.705 -2.611,-1.266 -0.587,0.442 -0.369,1.723 0.485,2.861 0.855,1.138 2.024,1.706 2.61,1.265 C 1.071,2.42 0.854,1.14 0,0"
             style="fill:#ffffff;fill-opacity:1;fill-rule:nonzero;stroke:none"
             id="path5718"
             inkscape:connector-curvature="0" /></g><g
           id="g5720"
           transform="translate(36.8735,66.1724)"><path
             d="m 0,0 c 0,0 0.872,0.5 1.877,-0.909 1.005,-1.408 0.805,-2.928 0.738,-3.152 -0.067,-0.223 -2.222,-5.418 -3.698,-5.886 0,0 -1.377,2.225 -2.562,2.781 C -1.274,-6.207 -0.067,-3.054 0,0"
             style="fill:#6e6e6e;fill-opacity:1;fill-rule:nonzero;stroke:none"
             id="path5722"
             inkscape:connector-curvature="0" /></g><g
           id="g5724"
           transform="translate(36.8735,66.1724)"><path
             d="m 0,0 c 0,0 0.872,0.5 1.877,-0.909 1.005,-1.408 0.805,-2.928 0.738,-3.152 -0.067,-0.223 -2.222,-5.418 -3.698,-5.886 0,0 -1.377,2.225 -2.562,2.781 C -1.274,-6.207 -0.067,-3.054 0,0"
             style="fill:#393939;fill-opacity:1;fill-rule:nonzero;stroke:none"
             id="path5726"
             inkscape:connector-curvature="0" /></g><g
           id="g5728"
           transform="translate(57.4023,65.9053)"><path
             d="m 0,0 c 0,0 -1.001,0.073 -1.303,-1.631 -0.3,-1.704 0.538,-2.99 0.694,-3.162 0.155,-0.174 3.121,-3.79 4.655,-3.579 0,0 2.081,2.567 3.555,3.209 C 5.049,-5.319 1.377,-2.73 0,0"
             style="fill:#393939;fill-opacity:1;fill-rule:nonzero;stroke:none"
             id="path5730"
             inkscape:connector-curvature="0" /></g><g
           id="g5732"
           transform="translate(49.1719,63.3569)"><path
             d="m 0,0 c 0,-0.333 -0.271,-0.604 -0.604,-0.604 -0.333,0 -0.603,0.271 -0.603,0.604 0,0.333 0.27,0.604 0.603,0.604 C -0.271,0.604 0,0.333 0,0"
             style="fill:#ffffff;fill-opacity:1;fill-rule:nonzero;stroke:none"
             id="path5734"
             inkscape:connector-curvature="0" /></g><g
           id="g5736"
           transform="translate(50.125,61.9985)"><path
             d="M 0,0 C -0.17,-0.187 -0.643,-0.038 -1.055,0.336 -1.469,0.71 -1.664,1.164 -1.496,1.352 -1.326,1.541 -0.852,1.39 -0.439,1.017 -0.027,0.644 0.169,0.188 0,0"
             style="fill:#ffffff;fill-opacity:1;fill-rule:nonzero;stroke:none"
             id="path5738"
             inkscape:connector-curvature="0" /></g></g></g></g></svg>