<?xml version="1.0" encoding="UTF-8" standalone="no"?>
<!-- Created with Inkscape (http://www.inkscape.org/) -->

<svg
   xmlns:dc="http://purl.org/dc/elements/1.1/"
   xmlns:cc="http://creativecommons.org/ns#"
   xmlns:rdf="http://www.w3.org/1999/02/22-rdf-syntax-ns#"
   xmlns:svg="http://www.w3.org/2000/svg"
   xmlns="http://www.w3.org/2000/svg"
   xmlns:sodipodi="http://sodipodi.sourceforge.net/DTD/sodipodi-0.dtd"
   xmlns:inkscape="http://www.inkscape.org/namespaces/inkscape"
   id="svg3336"
   version="1.1"
   inkscape:version="0.91 r13725"
   xml:space="preserve"
   width="1750"
   height="700"
   viewBox="0 0 1750 700"
   sodipodi:docname="banner_final lg.svg"><metadata
     id="metadata3342"><rdf:RDF><cc:Work
         rdf:about=""><dc:format>image/svg+xml</dc:format><dc:type
           rdf:resource="http://purl.org/dc/dcmitype/StillImage" /><dc:title /></cc:Work></rdf:RDF></metadata><defs
     id="defs3340"><clipPath
       clipPathUnits="userSpaceOnUse"
       id="clipPath3400"><path
         d="M 0,560 1400,560 1400,0 0,0 0,560 Z"
         id="path3402"
         inkscape:connector-curvature="0" /></clipPath><clipPath
       clipPathUnits="userSpaceOnUse"
       id="clipPath3408"><path
         d="m -45,691 1464,0 0,-916 -1464,0 0,916 z"
         id="path3410"
         inkscape:connector-curvature="0" /></clipPath><pattern
       patternTransform="matrix(3.09433,0,0,3.09433,16664.7,-15373.2)"
       patternUnits="userSpaceOnUse"
       x="0"
       y="0"
       width="85.602"
       height="148.268"
       id="pattern3412"><g
         transform="translate(42.6011,24.8252)"
         id="g3414"><path
           d="M 0,0 0,0.174 21.417,12.624 -0.302,0.174 -0.001,0 0,0 Z"
           style="fill:#2121b7;fill-opacity:1;fill-rule:nonzero;stroke:none"
           id="path3416" /></g><g
         transform="translate(85.602,49.6504)"
         id="g3418"><path
           d="M 0,0 0,0.001 0,0.349 -21.584,-12.201 -0.15,0.087 0,0 Z"
           style="fill:#2121b7;fill-opacity:1;fill-rule:nonzero;stroke:none"
           id="path3420" /></g><g
         transform="translate(42.6011,24.8252)"
         id="g3422"><path
           d="M 0,0 43.001,24.825 42.85,24.912 21.417,12.624 0,0.174 0,0 Z"
           style="fill:#2121b7;fill-opacity:1;fill-rule:nonzero;stroke:none"
           id="path3424" /></g><g
         transform="translate(42.6011,24.8252)"
         id="g3426"><path
           d="M 0,0 0,-49.652 43.001,-24.826 0,0 Z"
           style="fill:#196c7f;fill-opacity:1;fill-rule:nonzero;stroke:none"
           id="path3428" /></g><g
         transform="translate(85.602,-9e-4)"
         id="g3430"><path
           d="M 0,0 0,49.65 0,49.651 -43.001,24.826 0,0 Z"
           style="fill:#196172;fill-opacity:1;fill-rule:nonzero;stroke:none"
           id="path3432" /></g><g
         transform="translate(43.0005,24.8252)"
         id="g3434"><path
           d="M 0,0 0.301,0.174 -21.354,12.59 0,0.174 0,0 Z"
           style="fill:#2121b7;fill-opacity:1;fill-rule:nonzero;stroke:none"
           id="path3436" /></g><g
         transform="translate(0.1528,49.7383)"
         id="g3438"><path
           d="M 0,0 21.494,-12.323 -0.15,0.261 l -0.002,0 0,-0.348 L 0,0 Z"
           style="fill:#2121b7;fill-opacity:1;fill-rule:nonzero;stroke:none"
           id="path3440" /></g><g
         transform="translate(5e-4,49.6514)"
         id="g3442"><path
           d="m 0,0 0,-0.002 43,-24.824 0,0.174 L 21.646,-12.236 0.152,0.087 0,0 Z"
           style="fill:#2121b7;fill-opacity:1;fill-rule:nonzero;stroke:none"
           id="path3444" /></g><g
         transform="translate(43.0005,24.8252)"
         id="g3446"><path
           d="m 0,0 -43,24.824 0,-49.65 L 0,0 Z"
           style="fill:#2e6368;fill-opacity:1;fill-rule:nonzero;stroke:none"
           id="path3448" /></g><g
         transform="translate(43.0005,24.8243)"
         id="g3450"><path
           d="M 0,0 0,0.001 -43,-24.825 0,-49.651 0,0 Z"
           style="fill:#1e5d68;fill-opacity:1;fill-rule:nonzero;stroke:none"
           id="path3452" /></g><g
         transform="translate(85.4028,49.1329)"
         id="g3454"><path
           d="M 0,0 -0.001,0 -0.302,-0.086 21.442,-12.51 0,0 Z"
           style="fill:#325c63;fill-opacity:1;fill-rule:nonzero;stroke:none"
           id="path3456" /></g><g
         transform="translate(85.4028,98.959)"
         id="g3458"><path
           d="M 0,0 0,0.174 21.417,12.624 -0.302,0.174 -0.001,0 0,0 Z"
           style="fill:#2121b7;fill-opacity:1;fill-rule:nonzero;stroke:none"
           id="path3460" /></g><g
         transform="translate(128.4038,24.4786)"
         id="g3462"><path
           d="m 0,0 -43.001,24.826 0,-0.172 L -21.559,12.188 -0.15,-0.086 0,0 Z"
           style="fill:#325c63;fill-opacity:1;fill-rule:nonzero;stroke:none"
           id="path3464" /></g><g
         transform="translate(85.4028,98.959)"
         id="g3466"><path
           d="M 0,0 43.001,24.825 42.851,24.912 21.417,12.624 0,0.174 0,0 Z"
           style="fill:#2121b7;fill-opacity:1;fill-rule:nonzero;stroke:none"
           id="path3468" /></g><g
         transform="translate(128.4038,74.1329)"
         id="g3470"><path
           d="m 0,0 -43.001,-24.826 0,-0.002 L 0,-50 0,0 Z"
           style="fill:#325c63;fill-opacity:1;fill-rule:nonzero;stroke:none"
           id="path3472" /></g><g
         transform="translate(85.4028,98.959)"
         id="g3474"><path
           d="M 0,0 0,-49.652 43.001,-24.826 0,0 Z"
           style="fill:#196c7f;fill-opacity:1;fill-rule:nonzero;stroke:none"
           id="path3476" /></g><g
         transform="translate(128.4038,74.1329)"
         id="g3478"><path
           d="M 0,0 0,49.65 0,49.651 -43.001,24.826 0,0 Z"
           style="fill:#196172;fill-opacity:1;fill-rule:nonzero;stroke:none"
           id="path3480" /></g><g
         transform="translate(-0.1997,49.1329)"
         id="g3482"><path
           d="M 0,0 -0.001,0 -0.302,-0.086 21.442,-12.51 0,0 Z"
           style="fill:#325c63;fill-opacity:1;fill-rule:nonzero;stroke:none"
           id="path3484" /></g><g
         transform="translate(85.8013,98.959)"
         id="g3486"><path
           d="M 0,0 0.301,0.174 -21.354,12.59 0,0.174 0,0 Z"
           style="fill:#2121b7;fill-opacity:1;fill-rule:nonzero;stroke:none"
           id="path3488" /></g><g
         transform="translate(85.8013,49.3067)"
         id="g3490"><path
           d="M 0,0 0,-0.176 -21.318,-12.57 0.301,-0.174 0,0 Z"
           style="fill:#2b6872;fill-opacity:1;fill-rule:nonzero;stroke:none"
           id="path3492" /></g><g
         transform="translate(-0.1997,98.959)"
         id="g3494"><path
           d="M 0,0 0,0.174 21.417,12.624 -0.302,0.174 -0.001,0 0,0 Z"
           style="fill:#2121b7;fill-opacity:1;fill-rule:nonzero;stroke:none"
           id="path3496" /></g><g
         transform="translate(42.9536,123.8721)"
         id="g3498"><path
           d="M 0,0 21.494,-12.323 -0.15,0.261 l -0.002,0 0,-0.348 L 0,0 Z"
           style="fill:#2121b7;fill-opacity:1;fill-rule:nonzero;stroke:none"
           id="path3500" /></g><g
         transform="translate(42.8013,123.7842)"
         id="g3502"><path
           d="M 0,0 0,0.001 0,0.349 -21.584,-12.201 -0.15,0.087 0,0 Z"
           style="fill:#2121b7;fill-opacity:1;fill-rule:nonzero;stroke:none"
           id="path3504" /></g><g
         transform="translate(42.8013,24.1329)"
         id="g3506"><path
           d="M 0,0 -0.15,0.088 -21.559,12.447 0,0 Z"
           style="fill:#2121b7;fill-opacity:1;fill-rule:nonzero;stroke:none"
           id="path3508" /></g><g
         transform="translate(42.8013,24.4786)"
         id="g3510"><path
           d="m 0,0 0,-0.346 0.002,0 21.68,12.604 L 0.15,-0.086 0,0 Z"
           style="fill:#2b6872;fill-opacity:1;fill-rule:nonzero;stroke:none"
           id="path3512" /></g><g
         transform="translate(42.8013,123.7852)"
         id="g3514"><path
           d="M 0,0 0,-0.001 0,-0.002 0,0 Z"
           style="fill:#2121b7;fill-opacity:1;fill-rule:nonzero;stroke:none"
           id="path3516" /></g><g
         transform="translate(42.8013,123.7852)"
         id="g3518"><path
           d="m 0,0 0,-0.002 43,-24.824 0,0.174 L 21.646,-12.236 0.152,0.087 0,0 Z"
           style="fill:#2121b7;fill-opacity:1;fill-rule:nonzero;stroke:none"
           id="path3520" /></g><g
         transform="translate(42.8013,24.4786)"
         id="g3522"><path
           d="m 0,0 -43.001,24.826 0,-0.172 L -21.559,12.188 -0.15,-0.086 0,0 Z"
           style="fill:#325c63;fill-opacity:1;fill-rule:nonzero;stroke:none"
           id="path3524" /></g><g
         transform="translate(85.8013,49.3067)"
         id="g3526"><path
           d="m 0,0 0,0 -43,-24.826 0,-0.002 0.15,-0.086 21.532,12.344 L 0,-0.176 0,0 Z"
           style="fill:#2b6872;fill-opacity:1;fill-rule:nonzero;stroke:none"
           id="path3528" /></g><g
         transform="translate(42.8013,24.4786)"
         id="g3530"><path
           d="M 0,0 0,0.002 0,0 Z"
           style="fill:#2121b7;fill-opacity:1;fill-rule:nonzero;stroke:none"
           id="path3532" /></g><g
         transform="translate(-0.1997,98.959)"
         id="g3534"><path
           d="M 0,0 43.001,24.825 42.851,24.912 21.417,12.624 0,0.174 0,0 Z"
           style="fill:#2121b7;fill-opacity:1;fill-rule:nonzero;stroke:none"
           id="path3536" /></g><g
         transform="translate(85.8013,98.959)"
         id="g3538"><path
           d="m 0,0 -43,24.824 0,-49.65 L 0,0 Z"
           style="fill:#2e6368;fill-opacity:1;fill-rule:nonzero;stroke:none"
           id="path3540" /></g><g
         transform="translate(85.8013,98.9581)"
         id="g3542"><path
           d="M 0,0 0,0.001 -43,-24.825 0,-49.651 0,0 Z"
           style="fill:#1e5d68;fill-opacity:1;fill-rule:nonzero;stroke:none"
           id="path3544" /></g><g
         transform="translate(42.8013,24.4805)"
         id="g3546"><path
           d="M 0,0 43,24.826 0,49.652 0,0 Z"
           style="fill:#2b6872;fill-opacity:1;fill-rule:nonzero;stroke:none"
           id="path3548" /></g><g
         transform="translate(42.8013,74.1329)"
         id="g3550"><path
           d="M 0,0 Z"
           style="fill:#2121b7;fill-opacity:1;fill-rule:nonzero;stroke:none"
           id="path3552" /></g><g
         transform="translate(42.8013,74.1329)"
         id="g3554"><path
           d="m 0,0 -43.001,-24.826 0,-0.002 L 0,-50 0,0 Z"
           style="fill:#325c63;fill-opacity:1;fill-rule:nonzero;stroke:none"
           id="path3556" /></g><g
         transform="translate(-0.1997,98.959)"
         id="g3558"><path
           d="M 0,0 0,-49.652 43.001,-24.826 0,0 Z"
           style="fill:#196c7f;fill-opacity:1;fill-rule:nonzero;stroke:none"
           id="path3560" /></g><g
         transform="translate(42.8013,74.1329)"
         id="g3562"><path
           d="M 0,0 0,49.65 0,49.651 -43.001,24.826 0,0 Z"
           style="fill:#196172;fill-opacity:1;fill-rule:nonzero;stroke:none"
           id="path3564" /></g><g
         transform="translate(0.1992,98.959)"
         id="g3566"><path
           d="M 0,0 0.301,0.174 -21.354,12.59 0,0.174 0,0 Z"
           style="fill:#2121b7;fill-opacity:1;fill-rule:nonzero;stroke:none"
           id="path3568" /></g><g
         transform="translate(0.1992,49.3067)"
         id="g3570"><path
           d="M 0,0 0,-0.176 -21.318,-12.57 0.301,-0.174 0,0 Z"
           style="fill:#2b6872;fill-opacity:1;fill-rule:nonzero;stroke:none"
           id="path3572" /></g><g
         transform="translate(-42.8008,123.7852)"
         id="g3574"><path
           d="m 0,0 0,-0.002 43,-24.824 0,0.174 L 21.646,-12.236 0.152,0.087 0,0 Z"
           style="fill:#2121b7;fill-opacity:1;fill-rule:nonzero;stroke:none"
           id="path3576" /></g><g
         transform="translate(0.1992,49.3067)"
         id="g3578"><path
           d="m 0,0 0,0 -43,-24.826 0,-0.002 0.15,-0.086 21.532,12.344 L 0,-0.176 0,0 Z"
           style="fill:#2b6872;fill-opacity:1;fill-rule:nonzero;stroke:none"
           id="path3580" /></g><g
         transform="translate(0.1992,98.959)"
         id="g3582"><path
           d="m 0,0 -43,24.824 0,-49.65 L 0,0 Z"
           style="fill:#2e6368;fill-opacity:1;fill-rule:nonzero;stroke:none"
           id="path3584" /></g><g
         transform="translate(0.1992,98.9581)"
         id="g3586"><path
           d="M 0,0 0,0.001 -43,-24.825 0,-49.651 0,0 Z"
           style="fill:#1e5d68;fill-opacity:1;fill-rule:nonzero;stroke:none"
           id="path3588" /></g><g
         transform="translate(-42.8008,24.4805)"
         id="g3590"><path
           d="M 0,0 43,24.826 0,49.652 0,0 Z"
           style="fill:#2b6872;fill-opacity:1;fill-rule:nonzero;stroke:none"
           id="path3592" /></g><g
         transform="translate(42.6011,123.2667)"
         id="g3594"><path
           d="M 0,0 -0.001,0 -0.302,-0.086 21.442,-12.51 0,0 Z"
           style="fill:#325c63;fill-opacity:1;fill-rule:nonzero;stroke:none"
           id="path3596" /></g><g
         transform="translate(85.602,98.2667)"
         id="g3598"><path
           d="M 0,0 -0.15,0.088 -21.559,12.447 0,0 Z"
           style="fill:#2121b7;fill-opacity:1;fill-rule:nonzero;stroke:none"
           id="path3600" /></g><g
         transform="translate(85.602,98.6124)"
         id="g3602"><path
           d="m 0,0 -43.001,24.826 0,-0.172 L -21.559,12.188 -0.15,-0.086 0,0 Z"
           style="fill:#325c63;fill-opacity:1;fill-rule:nonzero;stroke:none"
           id="path3604" /></g><g
         transform="translate(85.602,148.2667)"
         id="g3606"><path
           d="m 0,0 -43.001,-24.826 0,-0.002 L 0,-50 0,0 Z"
           style="fill:#325c63;fill-opacity:1;fill-rule:nonzero;stroke:none"
           id="path3608" /></g><g
         transform="translate(42.6011,173.0928)"
         id="g3610"><path
           d="M 0,0 0,-49.652 43.001,-24.826 0,0 Z"
           style="fill:#196c7f;fill-opacity:1;fill-rule:nonzero;stroke:none"
           id="path3612" /></g><g
         transform="translate(85.602,148.2667)"
         id="g3614"><path
           d="M 0,0 0,49.65 0,49.651 -43.001,24.826 0,0 Z"
           style="fill:#196172;fill-opacity:1;fill-rule:nonzero;stroke:none"
           id="path3616" /></g><g
         transform="translate(43.0005,123.4405)"
         id="g3618"><path
           d="M 0,0 0,-0.176 -21.318,-12.57 0.301,-0.174 0,0 Z"
           style="fill:#2b6872;fill-opacity:1;fill-rule:nonzero;stroke:none"
           id="path3620" /></g><g
         transform="translate(5e-4,98.6124)"
         id="g3622"><path
           d="m 0,0 0,-0.346 0.002,0 21.68,12.604 L 0.15,-0.086 0,0 Z"
           style="fill:#2b6872;fill-opacity:1;fill-rule:nonzero;stroke:none"
           id="path3624" /></g><g
         transform="translate(43.0005,123.4405)"
         id="g3626"><path
           d="m 0,0 0,0 -43,-24.826 0,-0.002 0.15,-0.086 21.532,12.344 L 0,-0.176 0,0 Z"
           style="fill:#2b6872;fill-opacity:1;fill-rule:nonzero;stroke:none"
           id="path3628" /></g><g
         transform="translate(43.0005,173.0928)"
         id="g3630"><path
           d="m 0,0 -43,24.824 0,-49.65 L 0,0 Z"
           style="fill:#2e6368;fill-opacity:1;fill-rule:nonzero;stroke:none"
           id="path3632" /></g><g
         transform="translate(43.0005,173.0918)"
         id="g3634"><path
           d="M 0,0 0,0.001 -43,-24.825 0,-49.651 0,0 Z"
           style="fill:#1e5d68;fill-opacity:1;fill-rule:nonzero;stroke:none"
           id="path3636" /></g><g
         transform="translate(5e-4,98.6143)"
         id="g3638"><path
           d="M 0,0 43,24.826 0,49.652 0,0 Z"
           style="fill:#2b6872;fill-opacity:1;fill-rule:nonzero;stroke:none"
           id="path3640" /></g></pattern><clipPath
       clipPathUnits="userSpaceOnUse"
       id="clipPath3652"><path
         d="M 0,560 1400,560 1400,0 0,0 0,560 Z"
         id="path3654"
         inkscape:connector-curvature="0" /></clipPath><clipPath
       clipPathUnits="userSpaceOnUse"
       id="clipPath3660"><path
         d="m -113,629 1640,0 0,-724 -1640,0 0,724 z"
         id="path3662"
         inkscape:connector-curvature="0" /></clipPath><clipPath
       clipPathUnits="userSpaceOnUse"
       id="clipPath3664"><path
         d="m 1527,-95 -1640,0 0,724 1640,0 0,-724 z"
         id="path3666"
         inkscape:connector-curvature="0" /></clipPath><radialGradient
       fx="0"
       fy="0"
       cx="0"
       cy="0"
       r="1"
       gradientUnits="userSpaceOnUse"
       gradientTransform="matrix(694.6665,0,0,-371.83264,707,267)"
       spreadMethod="pad"
       id="radialGradient3672"><stop
         style="stop-opacity:0;stop-color:#ffffff"
         offset="0"
         id="stop3674" /><stop
         style="stop-opacity:1;stop-color:#ffffff"
         offset="0.78805933"
         id="stop3676" /><stop
         style="stop-opacity:1;stop-color:#ffffff"
         offset="1"
         id="stop3678" /></radialGradient><mask
       maskUnits="userSpaceOnUse"
       x="0"
       y="0"
       width="1"
       height="1"
       id="mask3680"><g
         id="g3682"><g
           id="g3684"><g
             id="g3686"><g
               id="g3688"><path
                 d="m -32768,32767 65535,0 0,-65535 -65535,0 0,65535 z"
                 style="fill:url(#radialGradient3672);stroke:none"
                 id="path3690"
                 inkscape:connector-curvature="0" /></g></g></g></g></mask><radialGradient
       fx="0"
       fy="0"
       cx="0"
       cy="0"
       r="1"
       gradientUnits="userSpaceOnUse"
       gradientTransform="matrix(694.6665,0,0,-371.83264,707,267)"
       spreadMethod="pad"
       id="radialGradient3692"><stop
         style="stop-opacity:1;stop-color:#fcfad9"
         offset="0"
         id="stop3694" /><stop
         style="stop-opacity:1;stop-color:#000000"
         offset="0.78805933"
         id="stop3696" /><stop
         style="stop-opacity:1;stop-color:#000000"
         offset="1"
         id="stop3698" /></radialGradient><clipPath
       clipPathUnits="userSpaceOnUse"
       id="clipPath3722"><path
         d="M 0,560 1400,560 1400,0 0,0 0,560 Z"
         id="path3724"
         inkscape:connector-curvature="0" /></clipPath><clipPath
       clipPathUnits="userSpaceOnUse"
       id="clipPath3730"><path
         d="m -440,815 2279,0 0,-1071 -2279,0 0,1071 z"
         id="path3732"
         inkscape:connector-curvature="0" /></clipPath><clipPath
       clipPathUnits="userSpaceOnUse"
       id="clipPath3734"><path
         d="m 1837.5,-254.5 -2276,0 0,1068 2276,0 0,-1068 z"
         id="path3736"
         inkscape:connector-curvature="0" /></clipPath><radialGradient
       fx="0"
       fy="0"
       cx="0"
       cy="0"
       r="1"
       gradientUnits="userSpaceOnUse"
       gradientTransform="matrix(963.80457,0,0,-686.04938,699.5,279.50098)"
       spreadMethod="pad"
       id="radialGradient3742"><stop
         style="stop-opacity:1;stop-color:#ffffff"
         offset="0"
         id="stop3744" /><stop
         style="stop-opacity:1;stop-color:#ffffff"
         offset="0.17970929"
         id="stop3746" /><stop
         style="stop-opacity:0;stop-color:#ffffff"
         offset="1"
         id="stop3748" /></radialGradient><mask
       maskUnits="userSpaceOnUse"
       x="0"
       y="0"
       width="1"
       height="1"
       id="mask3750"><g
         id="g3752"><g
           id="g3754"><g
             id="g3756"><g
               id="g3758"><path
                 d="m -32768,32767 65535,0 0,-65535 -65535,0 0,65535 z"
                 style="fill:url(#radialGradient3742);stroke:none"
                 id="path3760"
                 inkscape:connector-curvature="0" /></g></g></g></g></mask><radialGradient
       fx="0"
       fy="0"
       cx="0"
       cy="0"
       r="1"
       gradientUnits="userSpaceOnUse"
       gradientTransform="matrix(963.80457,0,0,-686.04938,699.5,279.50098)"
       spreadMethod="pad"
       id="radialGradient3762"><stop
         style="stop-opacity:1;stop-color:#ffffff"
         offset="0"
         id="stop3764" /><stop
         style="stop-opacity:1;stop-color:#ffffff"
         offset="0.17970929"
         id="stop3766" /><stop
         style="stop-opacity:1;stop-color:#231f20"
         offset="1"
         id="stop3768" /></radialGradient><clipPath
       clipPathUnits="userSpaceOnUse"
       id="clipPath3794"><path
         d="M 0,560 1400,560 1400,0 0,0 0,560 Z"
         id="path3796"
         inkscape:connector-curvature="0" /></clipPath><clipPath
       clipPathUnits="userSpaceOnUse"
       id="clipPath3818"><path
         d="m 480.476,470.188 146.367,0 0,-146.368 -146.367,0 0,146.368 z"
         id="path3820"
         inkscape:connector-curvature="0" /></clipPath><clipPath
       clipPathUnits="userSpaceOnUse"
       id="clipPath3834"><path
         d="m 454.594,472.667 174.161,0 0,-174.164 -174.161,0 0,174.164 z"
         id="path3836"
         inkscape:connector-curvature="0" /></clipPath><clipPath
       clipPathUnits="userSpaceOnUse"
       id="clipPath3850"><path
         d="m 459.502,437.857 142.288,0 0,-147.868 -142.288,0 0,147.868 z"
         id="path3852"
         inkscape:connector-curvature="0" /></clipPath><clipPath
       clipPathUnits="userSpaceOnUse"
       id="clipPath3866"><path
         d="m 459.502,437.857 142.288,0 0,-147.868 -142.288,0 0,147.868 z"
         id="path3868"
         inkscape:connector-curvature="0" /></clipPath><clipPath
       clipPathUnits="userSpaceOnUse"
       id="clipPath3906"><path
         d="m 756.455,470.902 146.369,0 0,-146.367 -146.369,0 0,146.367 z"
         id="path3908"
         inkscape:connector-curvature="0" /></clipPath><clipPath
       clipPathUnits="userSpaceOnUse"
       id="clipPath3922"><path
         d="m 754.541,473.379 174.163,0 0,-174.161 -174.163,0 0,174.161 z"
         id="path3924"
         inkscape:connector-curvature="0" /></clipPath><clipPath
       clipPathUnits="userSpaceOnUse"
       id="clipPath3938"><path
         d="m 781.503,438.574 142.291,0 0,-147.872 -142.291,0 0,147.872 z"
         id="path3940"
         inkscape:connector-curvature="0" /></clipPath><clipPath
       clipPathUnits="userSpaceOnUse"
       id="clipPath3954"><path
         d="m 781.503,438.574 142.291,0 0,-147.872 -142.291,0 0,147.872 z"
         id="path3956"
         inkscape:connector-curvature="0" /></clipPath></defs><sodipodi:namedview
     pagecolor="#ffffff"
     bordercolor="#666666"
     borderopacity="1"
     objecttolerance="10"
     gridtolerance="10"
     guidetolerance="10"
     inkscape:pageopacity="0"
     inkscape:pageshadow="2"
     inkscape:window-width="2538"
     inkscape:window-height="1188"
     id="namedview3338"
     showgrid="false"
     inkscape:zoom="0.97176674"
     inkscape:cx="898.1339"
     inkscape:cy="343.80058"
     inkscape:window-x="15"
     inkscape:window-y="16"
     inkscape:window-maximized="0"
     inkscape:current-layer="g3344" /><g
     id="g3344"
     inkscape:groupmode="layer"
     inkscape:label="banner_final lg"
     transform="matrix(1.25,0,0,-1.25,0,700)"><path
       d="m 0,0 1400,0 0,560 L 0,560 0,0 Z"
       style="fill:#070526;fill-opacity:1;fill-rule:nonzero;stroke:none"
       id="path3394"
       inkscape:connector-curvature="0" /><g
       id="g3648"><g
         id="g3650"
         clip-path="url(#clipPath3652)"><g
           id="g3656"><g
             id="g3658" /><g
             id="g3700"><g
               clip-path="url(#clipPath3660)"
               id="g3702"
               style="opacity:0.19999701"><g
                 id="g3704"><g
                   clip-path="url(#clipPath3664)"
                   id="g3706"><g
                     id="g3708"><g
                       id="g3710" /><g
                       mask="url(#mask3680)"
                       id="g3712"><g
                         id="g3714"><path
                           d="m 1527,-95 -1640,0 0,724 1640,0 0,-724 z"
                           style="fill:url(#radialGradient3692);stroke:none"
                           id="path3716"
                           inkscape:connector-curvature="0" /></g></g></g></g></g></g></g></g></g></g><g
       id="g3718"><g
         id="g3720"
         clip-path="url(#clipPath3722)"><g
           id="g3726"><g
             id="g3770"><g
               clip-path="url(#clipPath3730)"
               id="g3772"
               style="opacity:0.5"><g
                 id="g3774"><g
                   clip-path="url(#clipPath3734)"
                   id="g3776"><g
                     id="g3778"><g
                       mask="url(#mask3750)"
                       id="g3782"><g
                         id="g3784"><path
                           d="m 1837.5,-254.5 -2276,0 0,1068 2276,0 0,-1068 z"
                           style="fill:url(#radialGradient3762);stroke:none"
                           id="path3786"
                           inkscape:connector-curvature="0" /></g></g></g></g></g></g></g></g></g></g><g
       id="g4629"
       transform="translate(-26.080117,-3.9167844e-8)"><g
         transform="translate(395.15656,-86.7316)"
         id="g3790"><g
           clip-path="url(#clipPath3794)"
           id="g3792"><g
             transform="translate(621.127,356.8198)"
             id="g3798"><path
               inkscape:connector-curvature="0"
               id="path3800"
               style="fill:#77a8d6;fill-opacity:1;fill-rule:nonzero;stroke:none"
               d="m 0,0 c 0,-54.069 -43.83,-97.893 -97.899,-97.893 -54.065,0 -97.898,43.824 -97.898,97.893 0,54.071 43.833,97.909 97.898,97.909 C -43.83,97.909 0,54.071 0,0" /></g><g
             transform="translate(621.127,356.8198)"
             id="g3802"><path
               inkscape:connector-curvature="0"
               id="path3804"
               style="fill:none;stroke:#000000;stroke-width:41.95600128;stroke-linecap:butt;stroke-linejoin:miter;stroke-miterlimit:10;stroke-dasharray:none;stroke-opacity:1"
               d="m 0,0 c 0,-54.069 -43.83,-97.893 -97.899,-97.893 -54.065,0 -97.898,43.824 -97.898,97.893 0,54.071 43.833,97.909 97.898,97.909 C -43.83,97.909 0,54.071 0,0 Z" /></g><g
             transform="translate(621.127,356.8198)"
             id="g3806"><path
               inkscape:connector-curvature="0"
               id="path3808"
               style="fill:#3e78a3;fill-opacity:1;fill-rule:nonzero;stroke:none"
               d="m 0,0 c 0,-54.069 -43.83,-97.893 -97.899,-97.893 -54.065,0 -97.898,43.824 -97.898,97.893 0,54.071 43.833,97.909 97.898,97.909 C -43.83,97.909 0,54.071 0,0" /></g><g
             transform="translate(603.9561,404.7051)"
             id="g3810"><path
               inkscape:connector-curvature="0"
               id="path3812"
               style="fill:#00324b;fill-opacity:1;fill-rule:nonzero;stroke:none"
               d="m 0,0 c 0,-26.506 -21.489,-47.99 -47.994,-47.99 -26.503,0 -47.989,21.484 -47.989,47.99 0,26.506 21.486,47.99 47.989,47.99 C -21.489,47.99 0,26.506 0,0" /></g><g
             id="g3814"><g
               id="g3816" /><g
               id="g3822"><g
                 style="opacity:0.39999402"
                 id="g3824"
                 clip-path="url(#clipPath3818)"><g
                   id="g3826"
                   transform="translate(619.2148,397.0049)"><path
                     inkscape:connector-curvature="0"
                     id="path3828"
                     style="fill:none;stroke:#99999a;stroke-width:15.25699997;stroke-linecap:butt;stroke-linejoin:miter;stroke-miterlimit:10;stroke-dasharray:none;stroke-opacity:1"
                     d="m 0,0 c 0,-36.205 -29.354,-65.557 -65.56,-65.557 -36.203,0 -65.55,29.352 -65.55,65.557 0,36.204 29.347,65.554 65.55,65.554 C -29.354,65.554 0,36.204 0,0 Z" /></g></g></g></g><g
             id="g3830"><g
               id="g3832" /><g
               id="g3838"><g
                 style="opacity:0.39999402"
                 id="g3840"
                 clip-path="url(#clipPath3834)"><g
                   id="g3842"
                   transform="translate(621.127,385.583)"><path
                     inkscape:connector-curvature="0"
                     id="path3844"
                     style="fill:none;stroke:#cfd3d6;stroke-width:15.25699997;stroke-linecap:butt;stroke-linejoin:miter;stroke-miterlimit:10;stroke-dasharray:none;stroke-opacity:1"
                     d="m 0,0 c 0,-43.878 -35.573,-79.451 -79.453,-79.451 -43.878,0 -79.452,35.573 -79.452,79.451 0,43.877 35.574,79.456 79.452,79.456 C -35.573,79.456 0,43.877 0,0 Z" /></g></g></g></g><g
             id="g3846"><g
               id="g3848" /><g
               id="g3854"><g
                 style="opacity:0.39999402"
                 id="g3856"
                 clip-path="url(#clipPath3850)"><g
                   id="g3858"
                   transform="translate(579.207,425.3843)"><path
                     inkscape:connector-curvature="0"
                     id="path3860"
                     style="fill:#ffffff;fill-opacity:1;fill-rule:nonzero;stroke:none"
                     d="m 0,0 c 28.712,-22.682 30.251,-68.591 3.435,-102.534 -26.826,-33.955 -71.839,-43.072 -100.56,-20.396 -28.709,22.687 -30.251,68.598 -3.423,102.544 C -73.731,13.558 -28.712,22.692 0,0" /></g></g></g></g><g
             id="g3862"><g
               id="g3864" /><g
               id="g3870"><g
                 style="opacity:0.30000299"
                 id="g3872"
                 clip-path="url(#clipPath3866)"><g
                   id="g3874"
                   transform="translate(579.207,425.3843)"><path
                     inkscape:connector-curvature="0"
                     id="path3876"
                     style="fill:#ffffff;fill-opacity:1;fill-rule:nonzero;stroke:none"
                     d="m 0,0 c 28.712,-22.682 30.251,-68.591 3.435,-102.534 -26.826,-33.955 -71.839,-43.072 -100.56,-20.396 -28.709,22.687 -30.251,68.598 -3.423,102.544 C -73.731,13.558 -28.712,22.692 0,0" /></g></g></g></g><g
             transform="translate(621.127,356.8198)"
             id="g3878"><path
               inkscape:connector-curvature="0"
               id="path3880"
               style="fill:none;stroke:#000000;stroke-width:41.95600128;stroke-linecap:butt;stroke-linejoin:miter;stroke-miterlimit:10;stroke-dasharray:none;stroke-opacity:1"
               d="m 0,0 c 0,-54.069 -43.83,-97.893 -97.899,-97.893 -54.065,0 -97.898,43.824 -97.898,97.893 0,54.071 43.833,97.909 97.898,97.909 C -43.83,97.909 0,54.071 0,0 Z" /></g><g
             transform="translate(496.4512,407.7388)"
             id="g3882"><path
               inkscape:connector-curvature="0"
               id="path3884"
               style="fill:#ffffff;fill-opacity:1;fill-rule:nonzero;stroke:none"
               d="m 0,0 c 0,-4.621 -3.734,-8.352 -8.353,-8.352 -4.606,0 -8.343,3.731 -8.343,8.352 0,4.61 3.737,8.35 8.343,8.35 C -3.734,8.35 0,4.61 0,0" /></g><g
             transform="translate(762.1689,357.5371)"
             id="g3886"><path
               inkscape:connector-curvature="0"
               id="path3888"
               style="fill:#77a8d6;fill-opacity:1;fill-rule:nonzero;stroke:none"
               d="m 0,0 c 0,-54.069 43.831,-97.896 97.893,-97.896 54.076,0 97.901,43.827 97.901,97.896 0,54.072 -43.825,97.907 -97.901,97.907 C 43.831,97.907 0,54.072 0,0" /></g><g
             transform="translate(762.1689,357.5371)"
             id="g3890"><path
               inkscape:connector-curvature="0"
               id="path3892"
               style="fill:none;stroke:#000000;stroke-width:41.95600128;stroke-linecap:butt;stroke-linejoin:miter;stroke-miterlimit:10;stroke-dasharray:none;stroke-opacity:1"
               d="m 0,0 c 0,-54.069 43.831,-97.896 97.893,-97.896 54.076,0 97.901,43.827 97.901,97.896 0,54.072 -43.825,97.907 -97.901,97.907 C 43.831,97.907 0,54.072 0,0 Z" /></g><g
             transform="translate(762.1689,357.5371)"
             id="g3894"><path
               inkscape:connector-curvature="0"
               id="path3896"
               style="fill:#3e78a3;fill-opacity:1;fill-rule:nonzero;stroke:none"
               d="m 0,0 c 0,-54.069 43.831,-97.896 97.893,-97.896 54.076,0 97.901,43.827 97.901,97.896 0,54.072 -43.825,97.907 -97.901,97.907 C 43.831,97.907 0,54.072 0,0" /></g><g
             transform="translate(779.3398,405.4199)"
             id="g3898"><path
               inkscape:connector-curvature="0"
               id="path3900"
               style="fill:#00324b;fill-opacity:1;fill-rule:nonzero;stroke:none"
               d="m 0,0 c 0,-26.503 21.492,-47.987 47.989,-47.987 26.504,0 47.996,21.484 47.996,47.987 0,26.506 -21.492,47.99 -47.996,47.99 C 21.492,47.99 0,26.506 0,0" /></g><g
             id="g3902"><g
               id="g3904" /><g
               id="g3910"><g
                 style="opacity:0.39999402"
                 id="g3912"
                 clip-path="url(#clipPath3906)"><g
                   id="g3914"
                   transform="translate(764.083,397.7173)"><path
                     inkscape:connector-curvature="0"
                     id="path3916"
                     style="fill:none;stroke:#99999a;stroke-width:15.25699997;stroke-linecap:butt;stroke-linejoin:miter;stroke-miterlimit:10;stroke-dasharray:none;stroke-opacity:1"
                     d="m 0,0 c 0,-36.204 29.351,-65.554 65.56,-65.554 36.203,0 65.553,29.35 65.553,65.554 0,36.206 -29.35,65.557 -65.553,65.557 C 29.351,65.557 0,36.206 0,0 Z" /></g></g></g></g><g
             id="g3918"><g
               id="g3920" /><g
               id="g3926"><g
                 style="opacity:0.39999402"
                 id="g3928"
                 clip-path="url(#clipPath3922)"><g
                   id="g3930"
                   transform="translate(762.1689,386.2969)"><path
                     inkscape:connector-curvature="0"
                     id="path3932"
                     style="fill:none;stroke:#cfd3d6;stroke-width:15.25699997;stroke-linecap:butt;stroke-linejoin:miter;stroke-miterlimit:10;stroke-dasharray:none;stroke-opacity:1"
                     d="m 0,0 c 0,-43.878 35.578,-79.451 79.447,-79.451 43.886,0 79.46,35.573 79.46,79.451 0,43.877 -35.574,79.454 -79.46,79.454 C 35.578,79.454 0,43.877 0,0 Z" /></g></g></g></g><g
             id="g3934"><g
               id="g3936" /><g
               id="g3942"><g
                 style="opacity:0.39999402"
                 id="g3944"
                 clip-path="url(#clipPath3938)"><g
                   id="g3946"
                   transform="translate(804.0889,426.1011)"><path
                     inkscape:connector-curvature="0"
                     id="path3948"
                     style="fill:#ffffff;fill-opacity:1;fill-rule:nonzero;stroke:none"
                     d="m 0,0 c -28.718,-22.684 -30.255,-68.593 -3.433,-102.536 26.821,-33.955 71.836,-43.075 100.56,-20.396 28.706,22.684 30.249,68.598 3.424,102.55 C 73.733,13.559 28.706,22.69 0,0" /></g></g></g></g><g
             id="g3950"><g
               id="g3952" /><g
               id="g3958"><g
                 style="opacity:0.30000299"
                 id="g3960"
                 clip-path="url(#clipPath3954)"><g
                   id="g3962"
                   transform="translate(804.0889,426.1011)"><path
                     inkscape:connector-curvature="0"
                     id="path3964"
                     style="fill:#ffffff;fill-opacity:1;fill-rule:nonzero;stroke:none"
                     d="m 0,0 c -28.718,-22.684 -30.255,-68.593 -3.433,-102.536 26.821,-33.955 71.836,-43.075 100.56,-20.396 28.706,22.684 30.249,68.598 3.424,102.55 C 73.733,13.559 28.706,22.69 0,0" /></g></g></g></g><g
             transform="translate(762.1689,357.5371)"
             id="g3966"><path
               inkscape:connector-curvature="0"
               id="path3968"
               style="fill:none;stroke:#000000;stroke-width:41.95600128;stroke-linecap:butt;stroke-linejoin:miter;stroke-miterlimit:10;stroke-dasharray:none;stroke-opacity:1"
               d="m 0,0 c 0,-54.069 43.831,-97.896 97.893,-97.896 54.076,0 97.901,43.827 97.901,97.896 0,54.072 -43.825,97.907 -97.901,97.907 C 43.831,97.907 0,54.072 0,0 Z" /></g><g
             transform="translate(804.374,399.3867)"
             id="g3970"><path
               inkscape:connector-curvature="0"
               id="path3972"
               style="fill:#ffffff;fill-opacity:1;fill-rule:nonzero;stroke:none"
               d="m 0,0 c 0,-4.616 3.734,-8.35 8.35,-8.35 4.606,0 8.345,3.734 8.345,8.35 0,4.612 -3.739,8.352 -8.345,8.352 C 3.734,8.352 0,4.612 0,0" /></g><g
             transform="translate(646.2998,468.3691)"
             id="g3974"><path
               inkscape:connector-curvature="0"
               id="path3976"
               style="fill:#000000;fill-opacity:1;fill-rule:nonzero;stroke:none"
               d="m 0,0 c 5.7,-28.269 14.225,-91.376 -33.985,-91.376 -20.499,0 -32.278,68.587 -71.794,72.609 -53.419,5.44 -115.191,-51.656 -115.191,-35.079 0,28.837 79.217,80.768 127.43,80.768 C -45.332,26.922 -5.432,26.947 0,0" /></g><g
             transform="translate(737.001,468.2563)"
             id="g3978"><path
               inkscape:connector-curvature="0"
               id="path3980"
               style="fill:#000000;fill-opacity:1;fill-rule:nonzero;stroke:none"
               d="m 0,0 c -5.708,-28.266 -14.23,-91.374 33.986,-91.374 20.49,0 32.277,68.588 71.785,72.61 53.424,5.437 115.191,-51.654 115.191,-35.079 0,28.837 -79.212,80.767 -127.428,80.767 C 45.33,26.924 5.429,26.95 0,0" /></g><g
             transform="translate(762.8379,371.623)"
             id="g3982"><path
               inkscape:connector-curvature="0"
               id="path3984"
               style="fill:#000000;fill-opacity:1;fill-rule:nonzero;stroke:none"
               d="m 0,0 c 0,-42.804 -32.153,44.629 -71.811,44.629 -39.66,0 -71.812,-87.433 -71.812,-44.629 0,42.805 32.152,77.505 71.812,77.505 C -32.153,77.505 0,42.805 0,0" /></g><g
             transform="translate(724.0703,449.1279)"
             id="g3986"><path
               inkscape:connector-curvature="0"
               id="path3988"
               style="fill:#b3b3b3;fill-opacity:1;fill-rule:nonzero;stroke:none"
               d="m 0,0 c 0,-18.25 -14.798,-33.04 -33.043,-33.04 -18.247,0 -33.039,14.79 -33.039,33.04 0,18.247 14.792,33.037 33.039,33.037 C -14.798,33.037 0,18.247 0,0" /></g><g
             transform="translate(724.0703,449.1279)"
             id="g3990"><path
               inkscape:connector-curvature="0"
               id="path3992"
               style="fill:none;stroke:#000000;stroke-width:26.6989994;stroke-linecap:butt;stroke-linejoin:miter;stroke-miterlimit:10;stroke-dasharray:none;stroke-opacity:1"
               d="m 0,0 c 0,-18.25 -14.798,-33.04 -33.043,-33.04 -18.247,0 -33.039,14.79 -33.039,33.04 0,18.247 14.792,33.037 33.039,33.037 C -14.798,33.037 0,18.247 0,0 Z" /></g><g
             transform="translate(715.7715,449.1279)"
             id="g3994"><path
               inkscape:connector-curvature="0"
               id="path3996"
               style="fill:none;stroke:#6a7982;stroke-width:3.81399989;stroke-linecap:butt;stroke-linejoin:miter;stroke-miterlimit:10;stroke-dasharray:none;stroke-opacity:1"
               d="m 0,0 c 0,-13.671 -11.081,-24.749 -24.744,-24.749 -13.666,0 -24.752,11.078 -24.752,24.749 0,13.668 11.086,24.746 24.752,24.746 C -11.081,24.746 0,13.668 0,0 Z" /></g><g
             transform="translate(762.1689,356.7153)"
             id="g3998"><path
               inkscape:connector-curvature="0"
               id="path4000"
               style="fill:none;stroke:#939393;stroke-width:7.62799978;stroke-linecap:butt;stroke-linejoin:miter;stroke-miterlimit:10;stroke-dasharray:none;stroke-opacity:1"
               d="m 0,0 c 0,-54.066 43.831,-97.902 97.893,-97.902 54.076,0 97.901,43.836 97.901,97.902 0,54.069 -43.825,97.898 -97.901,97.898 C 43.831,97.898 0,54.069 0,0 Z" /></g><g
             transform="translate(751.29,356.709)"
             id="g4002"><path
               inkscape:connector-curvature="0"
               id="path4004"
               style="fill:none;stroke:#4e4e4e;stroke-width:3.81399989;stroke-linecap:butt;stroke-linejoin:miter;stroke-miterlimit:10;stroke-dasharray:none;stroke-opacity:1"
               d="m 0,0 c 0,-60.068 48.702,-108.771 108.771,-108.771 60.077,0 108.785,48.703 108.785,108.771 0,60.08 -48.708,108.785 -108.785,108.785 C 48.702,108.785 0,60.08 0,0 Z" /></g><g
             transform="translate(425.3301,356.7153)"
             id="g4006"><path
               inkscape:connector-curvature="0"
               id="path4008"
               style="fill:none;stroke:#939393;stroke-width:7.62799978;stroke-linecap:butt;stroke-linejoin:miter;stroke-miterlimit:10;stroke-dasharray:none;stroke-opacity:1"
               d="m 0,0 c 0,-54.066 43.833,-97.902 97.898,-97.902 54.069,0 97.899,43.836 97.899,97.902 0,54.069 -43.83,97.898 -97.899,97.898 C 43.833,97.898 0,54.069 0,0 Z" /></g><g
             transform="translate(414.4526,356.709)"
             id="g4010"><path
               inkscape:connector-curvature="0"
               id="path4012"
               style="fill:none;stroke:#4e4e4e;stroke-width:3.81399989;stroke-linecap:butt;stroke-linejoin:miter;stroke-miterlimit:10;stroke-dasharray:none;stroke-opacity:1"
               d="m 0,0 c 0,-60.068 48.702,-108.771 108.773,-108.771 60.077,0 108.779,48.703 108.779,108.771 0,60.08 -48.702,108.785 -108.779,108.785 C 48.702,108.785 0,60.08 0,0 Z" /></g><g
             transform="translate(482.3594,388.2124)"
             id="g4014"><path
               inkscape:connector-curvature="0"
               id="path4016"
               style="fill:#ffffff;fill-opacity:1;fill-rule:nonzero;stroke:none"
               d="m 0,0 c -5.201,-6.929 -12.31,-10.378 -15.88,-7.7 -3.568,2.683 -2.251,10.471 2.952,17.4 5.194,6.928 12.303,10.371 15.874,7.694 C 6.516,14.713 5.2,6.928 0,0" /></g><g
             transform="translate(807.7627,378.6987)"
             id="g4018"><path
               inkscape:connector-curvature="0"
               id="path4020"
               style="fill:#ffffff;fill-opacity:1;fill-rule:nonzero;stroke:none"
               d="m 0,0 c -5.206,-6.928 -12.307,-10.369 -15.876,-7.694 -3.571,2.68 -2.252,10.471 2.948,17.397 5.195,6.928 12.31,10.375 15.877,7.691 C 6.518,14.722 5.197,6.932 0,0" /></g><g
             transform="translate(623.96,482.1646)"
             id="g4022"><path
               inkscape:connector-curvature="0"
               id="path4024"
               style="fill:#6e6e6e;fill-opacity:1;fill-rule:nonzero;stroke:none"
               d="m 0,0 c 0,0 5.302,3.033 11.42,-5.534 6.118,-8.567 4.894,-17.812 4.488,-19.175 -0.409,-1.356 -13.518,-32.956 -22.495,-35.812 0,0 -8.381,13.544 -15.583,16.932 C -7.751,-37.76 -0.41,-18.586 0,0" /></g><g
             transform="translate(623.96,482.1646)"
             id="g4026"><path
               inkscape:connector-curvature="0"
               id="path4028"
               style="fill:#393939;fill-opacity:1;fill-rule:nonzero;stroke:none"
               d="m 0,0 c 0,0 5.302,3.033 11.42,-5.534 6.118,-8.567 4.894,-17.812 4.488,-19.175 -0.409,-1.356 -13.518,-32.956 -22.495,-35.812 0,0 -8.381,13.544 -15.583,16.932 C -7.751,-37.76 -0.41,-18.586 0,0" /></g><g
             transform="translate(748.8447,480.5352)"
             id="g4030"><path
               inkscape:connector-curvature="0"
               id="path4032"
               style="fill:#393939;fill-opacity:1;fill-rule:nonzero;stroke:none"
               d="m 0,0 c 0,0 -6.087,0.446 -7.921,-9.923 -1.83,-10.367 3.266,-18.185 4.212,-19.236 0.955,-1.05 18.99,-23.055 28.326,-21.767 0,0 12.648,15.615 21.619,19.519 C 30.709,-32.354 8.381,-16.606 0,0" /></g><g
             transform="translate(698.7754,465.0303)"
             id="g4034"><path
               inkscape:connector-curvature="0"
               id="path4036"
               style="fill:#ffffff;fill-opacity:1;fill-rule:nonzero;stroke:none"
               d="m 0,0 c 0,-2.025 -1.641,-3.669 -3.669,-3.669 -2.028,0 -3.67,1.644 -3.67,3.669 0,2.034 1.642,3.675 3.67,3.675 C -1.641,3.675 0,2.034 0,0" /></g><g
             transform="translate(704.5684,456.7769)"
             id="g4038"><path
               inkscape:connector-curvature="0"
               id="path4040"
               style="fill:#ffffff;fill-opacity:1;fill-rule:nonzero;stroke:none"
               d="m 0,0 c -1.024,-1.138 -3.906,-0.231 -6.411,2.042 -2.518,2.271 -3.706,5.037 -2.681,6.177 1.033,1.145 3.918,0.23 6.42,-2.035 C -0.16,3.913 1.031,1.141 0,0" /></g></g></g><g
         transform="translate(8.2324283,7.6537205)"
         id="g4395"><text
           transform="scale(1,-1)"
           style="font-variant:normal;font-weight:300;font-stretch:normal;font-size:196.69929504px;font-family:'Futura Std Light';-inkscape-font-specification:FuturaStd-Light;writing-mode:lr-tb;fill:#ffffff;fill-opacity:1;fill-rule:nonzero;stroke:none"
           id="text4042"
           x="188.92387"
           y="-283.73163"><tspan
             x="188.92387 335.26816 464.1062"
             y="-283.73163"
             sodipodi:role="line"
             id="tspan4044">SVG</tspan></text>
<text
           transform="scale(1,-1)"
           style="font-variant:normal;font-weight:300;font-stretch:normal;font-size:113.37339783px;font-family:'Futura Std Light';-inkscape-font-specification:FuturaStd-Light;writing-mode:lr-tb;fill:#9dafc6;fill-opacity:1;fill-rule:nonzero;stroke:none"
           id="text4046"
           x="56.101536"
           y="-138.55573"><tspan
             x="56.101536 174.35001 260.51379 332.27917 381.48322 468.44061 554.60431 600.97406 685.664"
             y="-138.55573"
             sodipodi:role="line"
             id="tspan4048">Navigator</tspan></text>
</g></g></g></svg>