<?xml version="1.0" encoding="UTF-8" standalone="no"?>
<!-- Created with Inkscape (http://www.inkscape.org/) -->

<svg
   xmlns:dc="http://purl.org/dc/elements/1.1/"
   xmlns:cc="http://creativecommons.org/ns#"
   xmlns:rdf="http://www.w3.org/1999/02/22-rdf-syntax-ns#"
   xmlns:svg="http://www.w3.org/2000/svg"
   xmlns="http://www.w3.org/2000/svg"
   xmlns:sodipodi="http://sodipodi.sourceforge.net/DTD/sodipodi-0.dtd"
   xmlns:inkscape="http://www.inkscape.org/namespaces/inkscape"
   id="svg4764"
   version="1.1"
   inkscape:version="0.91 r13725"
   xml:space="preserve"
   width="550"
   height="350"
   viewBox="0 0 550 350"
   sodipodi:docname="banner_final sm.svg"><metadata
     id="metadata4770"><rdf:RDF><cc:Work
         rdf:about=""><dc:format>image/svg+xml</dc:format><dc:type
           rdf:resource="http://purl.org/dc/dcmitype/StillImage" /><dc:title></dc:title></cc:Work></rdf:RDF></metadata><defs
     id="defs4768"><clipPath
       clipPathUnits="userSpaceOnUse"
       id="clipPath4828"><path
         d="M 0,280 440,280 440,0 0,0 0,280 Z"
         id="path4830"
         inkscape:connector-curvature="0" /></clipPath><clipPath
       clipPathUnits="userSpaceOnUse"
       id="clipPath4836"><path
         d="m -7,282 473,0 0,-296 -473,0 0,296 z"
         id="path4838"
         inkscape:connector-curvature="0" /></clipPath><pattern
       patternTransform="translate(0,280)"
       patternUnits="userSpaceOnUse"
       x="0"
       y="0"
       width="85.602"
       height="148.268"
       id="pattern4840"><g
         transform="translate(42.6011,24.8252)"
         id="g4842"><path
           d="M 0,0 0,0.174 21.417,12.624 -0.302,0.174 -0.001,0 0,0 Z"
           style="fill:#2121b7;fill-opacity:1;fill-rule:nonzero;stroke:none"
           id="path4844" /></g><g
         transform="translate(85.602,49.6504)"
         id="g4846"><path
           d="M 0,0 0,0.001 0,0.349 -21.584,-12.201 -0.15,0.087 0,0 Z"
           style="fill:#2121b7;fill-opacity:1;fill-rule:nonzero;stroke:none"
           id="path4848" /></g><g
         transform="translate(42.6011,24.8252)"
         id="g4850"><path
           d="M 0,0 43.001,24.825 42.85,24.912 21.417,12.624 0,0.174 0,0 Z"
           style="fill:#2121b7;fill-opacity:1;fill-rule:nonzero;stroke:none"
           id="path4852" /></g><g
         transform="translate(42.6011,24.8252)"
         id="g4854"><path
           d="M 0,0 0,-49.652 43.001,-24.826 0,0 Z"
           style="fill:#196c7f;fill-opacity:1;fill-rule:nonzero;stroke:none"
           id="path4856" /></g><g
         transform="translate(85.602,-9e-4)"
         id="g4858"><path
           d="M 0,0 0,49.65 0,49.651 -43.001,24.826 0,0 Z"
           style="fill:#196172;fill-opacity:1;fill-rule:nonzero;stroke:none"
           id="path4860" /></g><g
         transform="translate(43.0005,24.8252)"
         id="g4862"><path
           d="M 0,0 0.301,0.174 -21.354,12.59 0,0.174 0,0 Z"
           style="fill:#2121b7;fill-opacity:1;fill-rule:nonzero;stroke:none"
           id="path4864" /></g><g
         transform="translate(0.1528,49.7383)"
         id="g4866"><path
           d="M 0,0 21.494,-12.323 -0.15,0.261 l -0.002,0 0,-0.348 L 0,0 Z"
           style="fill:#2121b7;fill-opacity:1;fill-rule:nonzero;stroke:none"
           id="path4868" /></g><g
         transform="translate(5e-4,49.6514)"
         id="g4870"><path
           d="m 0,0 0,-0.002 43,-24.824 0,0.174 L 21.646,-12.236 0.152,0.087 0,0 Z"
           style="fill:#2121b7;fill-opacity:1;fill-rule:nonzero;stroke:none"
           id="path4872" /></g><g
         transform="translate(43.0005,24.8252)"
         id="g4874"><path
           d="m 0,0 -43,24.824 0,-49.65 L 0,0 Z"
           style="fill:#2e6368;fill-opacity:1;fill-rule:nonzero;stroke:none"
           id="path4876" /></g><g
         transform="translate(43.0005,24.8243)"
         id="g4878"><path
           d="M 0,0 0,0.001 -43,-24.825 0,-49.651 0,0 Z"
           style="fill:#1e5d68;fill-opacity:1;fill-rule:nonzero;stroke:none"
           id="path4880" /></g><g
         transform="translate(85.4028,49.1329)"
         id="g4882"><path
           d="M 0,0 -0.001,0 -0.302,-0.086 21.442,-12.51 0,0 Z"
           style="fill:#325c63;fill-opacity:1;fill-rule:nonzero;stroke:none"
           id="path4884" /></g><g
         transform="translate(85.4028,98.959)"
         id="g4886"><path
           d="M 0,0 0,0.174 21.417,12.624 -0.302,0.174 -0.001,0 0,0 Z"
           style="fill:#2121b7;fill-opacity:1;fill-rule:nonzero;stroke:none"
           id="path4888" /></g><g
         transform="translate(128.4038,24.4786)"
         id="g4890"><path
           d="m 0,0 -43.001,24.826 0,-0.172 L -21.559,12.188 -0.15,-0.086 0,0 Z"
           style="fill:#325c63;fill-opacity:1;fill-rule:nonzero;stroke:none"
           id="path4892" /></g><g
         transform="translate(85.4028,98.959)"
         id="g4894"><path
           d="M 0,0 43.001,24.825 42.851,24.912 21.417,12.624 0,0.174 0,0 Z"
           style="fill:#2121b7;fill-opacity:1;fill-rule:nonzero;stroke:none"
           id="path4896" /></g><g
         transform="translate(128.4038,74.1329)"
         id="g4898"><path
           d="m 0,0 -43.001,-24.826 0,-0.002 L 0,-50 0,0 Z"
           style="fill:#325c63;fill-opacity:1;fill-rule:nonzero;stroke:none"
           id="path4900" /></g><g
         transform="translate(85.4028,98.959)"
         id="g4902"><path
           d="M 0,0 0,-49.652 43.001,-24.826 0,0 Z"
           style="fill:#196c7f;fill-opacity:1;fill-rule:nonzero;stroke:none"
           id="path4904" /></g><g
         transform="translate(128.4038,74.1329)"
         id="g4906"><path
           d="M 0,0 0,49.65 0,49.651 -43.001,24.826 0,0 Z"
           style="fill:#196172;fill-opacity:1;fill-rule:nonzero;stroke:none"
           id="path4908" /></g><g
         transform="translate(-0.1997,49.1329)"
         id="g4910"><path
           d="M 0,0 -0.001,0 -0.302,-0.086 21.442,-12.51 0,0 Z"
           style="fill:#325c63;fill-opacity:1;fill-rule:nonzero;stroke:none"
           id="path4912" /></g><g
         transform="translate(85.8013,98.959)"
         id="g4914"><path
           d="M 0,0 0.301,0.174 -21.354,12.59 0,0.174 0,0 Z"
           style="fill:#2121b7;fill-opacity:1;fill-rule:nonzero;stroke:none"
           id="path4916" /></g><g
         transform="translate(85.8013,49.3067)"
         id="g4918"><path
           d="M 0,0 0,-0.176 -21.318,-12.57 0.301,-0.174 0,0 Z"
           style="fill:#2b6872;fill-opacity:1;fill-rule:nonzero;stroke:none"
           id="path4920" /></g><g
         transform="translate(-0.1997,98.959)"
         id="g4922"><path
           d="M 0,0 0,0.174 21.417,12.624 -0.302,0.174 -0.001,0 0,0 Z"
           style="fill:#2121b7;fill-opacity:1;fill-rule:nonzero;stroke:none"
           id="path4924" /></g><g
         transform="translate(42.9536,123.8721)"
         id="g4926"><path
           d="M 0,0 21.494,-12.323 -0.15,0.261 l -0.002,0 0,-0.348 L 0,0 Z"
           style="fill:#2121b7;fill-opacity:1;fill-rule:nonzero;stroke:none"
           id="path4928" /></g><g
         transform="translate(42.8013,123.7842)"
         id="g4930"><path
           d="M 0,0 0,0.001 0,0.349 -21.584,-12.201 -0.15,0.087 0,0 Z"
           style="fill:#2121b7;fill-opacity:1;fill-rule:nonzero;stroke:none"
           id="path4932" /></g><g
         transform="translate(42.8013,24.1329)"
         id="g4934"><path
           d="M 0,0 -0.15,0.088 -21.559,12.447 0,0 Z"
           style="fill:#2121b7;fill-opacity:1;fill-rule:nonzero;stroke:none"
           id="path4936" /></g><g
         transform="translate(42.8013,24.4786)"
         id="g4938"><path
           d="m 0,0 0,-0.346 0.002,0 21.68,12.604 L 0.15,-0.086 0,0 Z"
           style="fill:#2b6872;fill-opacity:1;fill-rule:nonzero;stroke:none"
           id="path4940" /></g><g
         transform="translate(42.8013,123.7852)"
         id="g4942"><path
           d="M 0,0 0,-0.001 0,-0.002 0,0 Z"
           style="fill:#2121b7;fill-opacity:1;fill-rule:nonzero;stroke:none"
           id="path4944" /></g><g
         transform="translate(42.8013,123.7852)"
         id="g4946"><path
           d="m 0,0 0,-0.002 43,-24.824 0,0.174 L 21.646,-12.236 0.152,0.087 0,0 Z"
           style="fill:#2121b7;fill-opacity:1;fill-rule:nonzero;stroke:none"
           id="path4948" /></g><g
         transform="translate(42.8013,24.4786)"
         id="g4950"><path
           d="m 0,0 -43.001,24.826 0,-0.172 L -21.559,12.188 -0.15,-0.086 0,0 Z"
           style="fill:#325c63;fill-opacity:1;fill-rule:nonzero;stroke:none"
           id="path4952" /></g><g
         transform="translate(85.8013,49.3067)"
         id="g4954"><path
           d="m 0,0 0,0 -43,-24.826 0,-0.002 0.15,-0.086 21.532,12.344 L 0,-0.176 0,0 Z"
           style="fill:#2b6872;fill-opacity:1;fill-rule:nonzero;stroke:none"
           id="path4956" /></g><g
         transform="translate(42.8013,24.4786)"
         id="g4958"><path
           d="M 0,0 0,0.002 0,0 Z"
           style="fill:#2121b7;fill-opacity:1;fill-rule:nonzero;stroke:none"
           id="path4960" /></g><g
         transform="translate(-0.1997,98.959)"
         id="g4962"><path
           d="M 0,0 43.001,24.825 42.851,24.912 21.417,12.624 0,0.174 0,0 Z"
           style="fill:#2121b7;fill-opacity:1;fill-rule:nonzero;stroke:none"
           id="path4964" /></g><g
         transform="translate(85.8013,98.959)"
         id="g4966"><path
           d="m 0,0 -43,24.824 0,-49.65 L 0,0 Z"
           style="fill:#2e6368;fill-opacity:1;fill-rule:nonzero;stroke:none"
           id="path4968" /></g><g
         transform="translate(85.8013,98.9581)"
         id="g4970"><path
           d="M 0,0 0,0.001 -43,-24.825 0,-49.651 0,0 Z"
           style="fill:#1e5d68;fill-opacity:1;fill-rule:nonzero;stroke:none"
           id="path4972" /></g><g
         transform="translate(42.8013,24.4805)"
         id="g4974"><path
           d="M 0,0 43,24.826 0,49.652 0,0 Z"
           style="fill:#2b6872;fill-opacity:1;fill-rule:nonzero;stroke:none"
           id="path4976" /></g><g
         transform="translate(42.8013,74.1329)"
         id="g4978"><path
           d="M 0,0 Z"
           style="fill:#2121b7;fill-opacity:1;fill-rule:nonzero;stroke:none"
           id="path4980" /></g><g
         transform="translate(42.8013,74.1329)"
         id="g4982"><path
           d="m 0,0 -43.001,-24.826 0,-0.002 L 0,-50 0,0 Z"
           style="fill:#325c63;fill-opacity:1;fill-rule:nonzero;stroke:none"
           id="path4984" /></g><g
         transform="translate(-0.1997,98.959)"
         id="g4986"><path
           d="M 0,0 0,-49.652 43.001,-24.826 0,0 Z"
           style="fill:#196c7f;fill-opacity:1;fill-rule:nonzero;stroke:none"
           id="path4988" /></g><g
         transform="translate(42.8013,74.1329)"
         id="g4990"><path
           d="M 0,0 0,49.65 0,49.651 -43.001,24.826 0,0 Z"
           style="fill:#196172;fill-opacity:1;fill-rule:nonzero;stroke:none"
           id="path4992" /></g><g
         transform="translate(0.1992,98.959)"
         id="g4994"><path
           d="M 0,0 0.301,0.174 -21.354,12.59 0,0.174 0,0 Z"
           style="fill:#2121b7;fill-opacity:1;fill-rule:nonzero;stroke:none"
           id="path4996" /></g><g
         transform="translate(0.1992,49.3067)"
         id="g4998"><path
           d="M 0,0 0,-0.176 -21.318,-12.57 0.301,-0.174 0,0 Z"
           style="fill:#2b6872;fill-opacity:1;fill-rule:nonzero;stroke:none"
           id="path5000" /></g><g
         transform="translate(-42.8008,123.7852)"
         id="g5002"><path
           d="m 0,0 0,-0.002 43,-24.824 0,0.174 L 21.646,-12.236 0.152,0.087 0,0 Z"
           style="fill:#2121b7;fill-opacity:1;fill-rule:nonzero;stroke:none"
           id="path5004" /></g><g
         transform="translate(0.1992,49.3067)"
         id="g5006"><path
           d="m 0,0 0,0 -43,-24.826 0,-0.002 0.15,-0.086 21.532,12.344 L 0,-0.176 0,0 Z"
           style="fill:#2b6872;fill-opacity:1;fill-rule:nonzero;stroke:none"
           id="path5008" /></g><g
         transform="translate(0.1992,98.959)"
         id="g5010"><path
           d="m 0,0 -43,24.824 0,-49.65 L 0,0 Z"
           style="fill:#2e6368;fill-opacity:1;fill-rule:nonzero;stroke:none"
           id="path5012" /></g><g
         transform="translate(0.1992,98.9581)"
         id="g5014"><path
           d="M 0,0 0,0.001 -43,-24.825 0,-49.651 0,0 Z"
           style="fill:#1e5d68;fill-opacity:1;fill-rule:nonzero;stroke:none"
           id="path5016" /></g><g
         transform="translate(-42.8008,24.4805)"
         id="g5018"><path
           d="M 0,0 43,24.826 0,49.652 0,0 Z"
           style="fill:#2b6872;fill-opacity:1;fill-rule:nonzero;stroke:none"
           id="path5020" /></g><g
         transform="translate(42.6011,123.2667)"
         id="g5022"><path
           d="M 0,0 -0.001,0 -0.302,-0.086 21.442,-12.51 0,0 Z"
           style="fill:#325c63;fill-opacity:1;fill-rule:nonzero;stroke:none"
           id="path5024" /></g><g
         transform="translate(85.602,98.2667)"
         id="g5026"><path
           d="M 0,0 -0.15,0.088 -21.559,12.447 0,0 Z"
           style="fill:#2121b7;fill-opacity:1;fill-rule:nonzero;stroke:none"
           id="path5028" /></g><g
         transform="translate(85.602,98.6124)"
         id="g5030"><path
           d="m 0,0 -43.001,24.826 0,-0.172 L -21.559,12.188 -0.15,-0.086 0,0 Z"
           style="fill:#325c63;fill-opacity:1;fill-rule:nonzero;stroke:none"
           id="path5032" /></g><g
         transform="translate(85.602,148.2667)"
         id="g5034"><path
           d="m 0,0 -43.001,-24.826 0,-0.002 L 0,-50 0,0 Z"
           style="fill:#325c63;fill-opacity:1;fill-rule:nonzero;stroke:none"
           id="path5036" /></g><g
         transform="translate(42.6011,173.0928)"
         id="g5038"><path
           d="M 0,0 0,-49.652 43.001,-24.826 0,0 Z"
           style="fill:#196c7f;fill-opacity:1;fill-rule:nonzero;stroke:none"
           id="path5040" /></g><g
         transform="translate(85.602,148.2667)"
         id="g5042"><path
           d="M 0,0 0,49.65 0,49.651 -43.001,24.826 0,0 Z"
           style="fill:#196172;fill-opacity:1;fill-rule:nonzero;stroke:none"
           id="path5044" /></g><g
         transform="translate(43.0005,123.4405)"
         id="g5046"><path
           d="M 0,0 0,-0.176 -21.318,-12.57 0.301,-0.174 0,0 Z"
           style="fill:#2b6872;fill-opacity:1;fill-rule:nonzero;stroke:none"
           id="path5048" /></g><g
         transform="translate(5e-4,98.6124)"
         id="g5050"><path
           d="m 0,0 0,-0.346 0.002,0 21.68,12.604 L 0.15,-0.086 0,0 Z"
           style="fill:#2b6872;fill-opacity:1;fill-rule:nonzero;stroke:none"
           id="path5052" /></g><g
         transform="translate(43.0005,123.4405)"
         id="g5054"><path
           d="m 0,0 0,0 -43,-24.826 0,-0.002 0.15,-0.086 21.532,12.344 L 0,-0.176 0,0 Z"
           style="fill:#2b6872;fill-opacity:1;fill-rule:nonzero;stroke:none"
           id="path5056" /></g><g
         transform="translate(43.0005,173.0928)"
         id="g5058"><path
           d="m 0,0 -43,24.824 0,-49.65 L 0,0 Z"
           style="fill:#2e6368;fill-opacity:1;fill-rule:nonzero;stroke:none"
           id="path5060" /></g><g
         transform="translate(43.0005,173.0918)"
         id="g5062"><path
           d="M 0,0 0,0.001 -43,-24.825 0,-49.651 0,0 Z"
           style="fill:#1e5d68;fill-opacity:1;fill-rule:nonzero;stroke:none"
           id="path5064" /></g><g
         transform="translate(5e-4,98.6143)"
         id="g5066"><path
           d="M 0,0 43,24.826 0,49.652 0,0 Z"
           style="fill:#2b6872;fill-opacity:1;fill-rule:nonzero;stroke:none"
           id="path5068" /></g></pattern><clipPath
       clipPathUnits="userSpaceOnUse"
       id="clipPath5080"><path
         d="M 0,280 440,280 440,0 0,0 0,280 Z"
         id="path5082"
         inkscape:connector-curvature="0" /></clipPath><clipPath
       clipPathUnits="userSpaceOnUse"
       id="clipPath5088"><path
         d="m -58,293 567,0 0,-304 -567,0 0,304 z"
         id="path5090"
         inkscape:connector-curvature="0" /></clipPath><clipPath
       clipPathUnits="userSpaceOnUse"
       id="clipPath5092"><path
         d="m 509,-11 -567,0 0,304 567,0 0,-304 z"
         id="path5094"
         inkscape:connector-curvature="0" /></clipPath><radialGradient
       fx="0"
       fy="0"
       cx="0"
       cy="0"
       r="1"
       gradientUnits="userSpaceOnUse"
       gradientTransform="matrix(240.11267,0,0,-156.21106,225.5,141)"
       spreadMethod="pad"
       id="radialGradient5100"><stop
         style="stop-opacity:0;stop-color:#ffffff"
         offset="0"
         id="stop5102" /><stop
         style="stop-opacity:1;stop-color:#ffffff"
         offset="0.78805933"
         id="stop5104" /><stop
         style="stop-opacity:1;stop-color:#ffffff"
         offset="1"
         id="stop5106" /></radialGradient><mask
       maskUnits="userSpaceOnUse"
       x="0"
       y="0"
       width="1"
       height="1"
       id="mask5108"><g
         id="g5110"><g
           id="g5112"><g
             id="g5114"><g
               id="g5116"><path
                 d="m -32768,32767 65535,0 0,-65535 -65535,0 0,65535 z"
                 style="fill:url(#radialGradient5100);stroke:none"
                 id="path5118"
                 inkscape:connector-curvature="0" /></g></g></g></g></mask><radialGradient
       fx="0"
       fy="0"
       cx="0"
       cy="0"
       r="1"
       gradientUnits="userSpaceOnUse"
       gradientTransform="matrix(240.11267,0,0,-156.21106,225.5,141)"
       spreadMethod="pad"
       id="radialGradient5120"><stop
         style="stop-opacity:1;stop-color:#fcfad9"
         offset="0"
         id="stop5122" /><stop
         style="stop-opacity:1;stop-color:#000000"
         offset="0.78805933"
         id="stop5124" /><stop
         style="stop-opacity:1;stop-color:#000000"
         offset="1"
         id="stop5126" /></radialGradient><clipPath
       clipPathUnits="userSpaceOnUse"
       id="clipPath5150"><path
         d="M 0,280 440,280 440,0 0,0 0,280 Z"
         id="path5152"
         inkscape:connector-curvature="0" /></clipPath><clipPath
       clipPathUnits="userSpaceOnUse"
       id="clipPath5158"><path
         d="m -174,325 788,0 0,-370 -788,0 0,370 z"
         id="path5160"
         inkscape:connector-curvature="0" /></clipPath><clipPath
       clipPathUnits="userSpaceOnUse"
       id="clipPath5162"><path
         d="m 613.5,-44.5 -787,0 0,369 787,0 0,-369 z"
         id="path5164"
         inkscape:connector-curvature="0" /></clipPath><radialGradient
       fx="0"
       fy="0"
       cx="0"
       cy="0"
       r="1"
       gradientUnits="userSpaceOnUse"
       gradientTransform="matrix(333.18588,0,0,-237.16631,220,140)"
       spreadMethod="pad"
       id="radialGradient5170"><stop
         style="stop-opacity:1;stop-color:#ffffff"
         offset="0"
         id="stop5172" /><stop
         style="stop-opacity:1;stop-color:#ffffff"
         offset="0.17970929"
         id="stop5174" /><stop
         style="stop-opacity:0;stop-color:#ffffff"
         offset="1"
         id="stop5176" /></radialGradient><mask
       maskUnits="userSpaceOnUse"
       x="0"
       y="0"
       width="1"
       height="1"
       id="mask5178"><g
         id="g5180"><g
           id="g5182"><g
             id="g5184"><g
               id="g5186"><path
                 d="m -32768,32767 65535,0 0,-65535 -65535,0 0,65535 z"
                 style="fill:url(#radialGradient5170);stroke:none"
                 id="path5188"
                 inkscape:connector-curvature="0" /></g></g></g></g></mask><radialGradient
       fx="0"
       fy="0"
       cx="0"
       cy="0"
       r="1"
       gradientUnits="userSpaceOnUse"
       gradientTransform="matrix(333.18588,0,0,-237.16631,220,140)"
       spreadMethod="pad"
       id="radialGradient5190"><stop
         style="stop-opacity:1;stop-color:#ffffff"
         offset="0"
         id="stop5192" /><stop
         style="stop-opacity:1;stop-color:#ffffff"
         offset="0.17970929"
         id="stop5194" /><stop
         style="stop-opacity:1;stop-color:#231f20"
         offset="1"
         id="stop5196" /></radialGradient><clipPath
       clipPathUnits="userSpaceOnUse"
       id="clipPath5222"><path
         d="M 0,280 440,280 440,0 0,0 0,280 Z"
         id="path5224"
         inkscape:connector-curvature="0" /></clipPath><clipPath
       clipPathUnits="userSpaceOnUse"
       id="clipPath5246"><path
         d="m 146.991,226.44 50.603,0 0,-50.603 -50.603,0 0,50.603 z"
         id="path5248"
         inkscape:connector-curvature="0" /></clipPath><clipPath
       clipPathUnits="userSpaceOnUse"
       id="clipPath5262"><path
         d="m 138.042,227.298 60.213,0 0,-60.214 -60.213,0 0,60.214 z"
         id="path5264"
         inkscape:connector-curvature="0" /></clipPath><clipPath
       clipPathUnits="userSpaceOnUse"
       id="clipPath5278"><path
         d="m 139.739,215.263 49.194,0 0,-51.123 -49.194,0 0,51.123 z"
         id="path5280"
         inkscape:connector-curvature="0" /></clipPath><clipPath
       clipPathUnits="userSpaceOnUse"
       id="clipPath5294"><path
         d="m 139.739,215.263 49.194,0 0,-51.123 -49.194,0 0,51.123 z"
         id="path5296"
         inkscape:connector-curvature="0" /></clipPath><clipPath
       clipPathUnits="userSpaceOnUse"
       id="clipPath5334"><path
         d="m 242.405,226.688 50.606,0 0,-50.604 -50.606,0 0,50.604 z"
         id="path5336"
         inkscape:connector-curvature="0" /></clipPath><clipPath
       clipPathUnits="userSpaceOnUse"
       id="clipPath5350"><path
         d="m 241.743,227.544 60.215,0 0,-60.213 -60.215,0 0,60.213 z"
         id="path5352"
         inkscape:connector-curvature="0" /></clipPath><clipPath
       clipPathUnits="userSpaceOnUse"
       id="clipPath5366"><path
         d="m 251.065,215.511 49.195,0 0,-51.124 -49.195,0 0,51.124 z"
         id="path5368"
         inkscape:connector-curvature="0" /></clipPath><clipPath
       clipPathUnits="userSpaceOnUse"
       id="clipPath5382"><path
         d="m 251.065,215.511 49.195,0 0,-51.124 -49.195,0 0,51.124 z"
         id="path5384"
         inkscape:connector-curvature="0" /></clipPath></defs><sodipodi:namedview
     pagecolor="#ffffff"
     bordercolor="#666666"
     borderopacity="1"
     objecttolerance="10"
     gridtolerance="10"
     guidetolerance="10"
     inkscape:pageopacity="0"
     inkscape:pageshadow="2"
     inkscape:window-width="640"
     inkscape:window-height="480"
     id="namedview4766"
     showgrid="false"
     inkscape:zoom="0.65272727"
     inkscape:cx="275"
     inkscape:cy="175"
     inkscape:window-x="0"
     inkscape:window-y="0"
     inkscape:window-maximized="0"
     inkscape:current-layer="g4772" /><g
     id="g4772"
     inkscape:groupmode="layer"
     inkscape:label="banner_final sm"
     transform="matrix(1.25,0,0,-1.25,0,350)"><g
       id="g4774"
       transform="translate(176.9985,115.173)"><path
         d="m 0,0 0.002,-0.001 0,0.002 L 0,0 Z"
         style="fill:#2121b7;fill-opacity:1;fill-rule:nonzero;stroke:none"
         id="path4776"
         inkscape:connector-curvature="0" /></g><g
       id="g4778"
       transform="translate(176.9994,164.826)"><path
         d="M 0,0 0.001,0 0,0 Z"
         style="fill:#2121b7;fill-opacity:1;fill-rule:nonzero;stroke:none"
         id="path4780"
         inkscape:connector-curvature="0" /></g><g
       id="g4782"
       transform="translate(219.9987,189.6516)"><path
         d="m 0,0 0.001,-0.001 0,0.002 L 0,0 Z"
         style="fill:#2121b7;fill-opacity:1;fill-rule:nonzero;stroke:none"
         id="path4784"
         inkscape:connector-curvature="0" /></g><g
       id="g4786"
       transform="translate(262.9989,164.826)"><path
         d="M 0,0 0.001,-0.001 0.001,0 0,0 Z"
         style="fill:#2121b7;fill-opacity:1;fill-rule:nonzero;stroke:none"
         id="path4788"
         inkscape:connector-curvature="0" /></g><g
       id="g4790"
       transform="translate(219.9987,90.3465)"><path
         d="m 0,0 0.001,0 0,0.001 L 0,0 Z"
         style="fill:#2121b7;fill-opacity:1;fill-rule:nonzero;stroke:none"
         id="path4792"
         inkscape:connector-curvature="0" /></g><g
       id="g4794"
       transform="translate(262.999,164.8257)"><path
         d="m 0,0 -42.999,24.825 0,-49.65 L 0,0 Z"
         style="fill:#2c6891;fill-opacity:1;fill-rule:nonzero;stroke:none"
         id="path4796"
         inkscape:connector-curvature="0" /></g><g
       id="g4798"
       transform="translate(263,164.8252)"><path
         d="M 0,0 -0.001,0 -43,-24.825 -43,-24.826 0,-49.651 0,0 Z"
         style="fill:#0f0f4f;fill-opacity:1;fill-rule:nonzero;stroke:none"
         id="path4800"
         inkscape:connector-curvature="0" /></g><g
       id="g4802"
       transform="translate(220,90.3477)"><path
         d="M 0,0 43,24.826 0,49.652 0,0 Z"
         style="fill:#2121b7;fill-opacity:1;fill-rule:nonzero;stroke:none"
         id="path4804"
         inkscape:connector-curvature="0" /></g><g
       id="g4806"
       transform="translate(219.9996,139.9995)"><path
         d="M 0,0 0,0.001 0,0 Z"
         style="fill:#2121b7;fill-opacity:1;fill-rule:nonzero;stroke:none"
         id="path4808"
         inkscape:connector-curvature="0" /></g><g
       id="g4810"
       transform="translate(219.9995,140)"><path
         d="m 0,0 -43,-24.826 0,-0.002 L -0.001,-50 0,-50 0,0 Z"
         style="fill:#363689;fill-opacity:1;fill-rule:nonzero;stroke:none"
         id="path4812"
         inkscape:connector-curvature="0" /></g><g
       id="g4814"
       transform="translate(177,164.8257)"><path
         d="M 0,0 0,-49.652 43,-24.826 0,0 Z"
         style="fill:#b2b2db;fill-opacity:1;fill-rule:nonzero;stroke:none"
         id="path4816"
         inkscape:connector-curvature="0" /></g><g
       id="g4818"
       transform="translate(220,140.0005)"><path
         d="M 0,0 0,49.65 -0.001,49.651 -43,24.826 -43,24.825 0,0 Z"
         style="fill:#7777d8;fill-opacity:1;fill-rule:nonzero;stroke:none"
         id="path4820"
         inkscape:connector-curvature="0" /></g><path
       d="M 0,0 440,0 440,280 0,280 0,0 Z"
       style="fill:#070526;fill-opacity:1;fill-rule:nonzero;stroke:none"
       id="path4822"
       inkscape:connector-curvature="0" /><g
       id="g4824"><g
         id="g4826"
         clip-path="url(#clipPath4828)"><g
           id="g4832"><g
             id="g4834" /><g
             id="g5070"><g
               clip-path="url(#clipPath4836)"
               id="g5072"
               style="opacity:0.5"><path
                 d="m 466,-14 -473,0 0,296 473,0 0,-296 z"
                 style="fill:url(#pattern4840);fill-opacity:1;fill-rule:nonzero;stroke:none"
                 id="path5074"
                 inkscape:connector-curvature="0" /></g></g></g></g></g><g
       id="g5076"><g
         id="g5078"
         clip-path="url(#clipPath5080)"><g
           id="g5084"><g
             id="g5086" /><g
             id="g5128"><g
               clip-path="url(#clipPath5088)"
               id="g5130"
               style="opacity:0.19999701"><g
                 id="g5132"><g
                   clip-path="url(#clipPath5092)"
                   id="g5134"><g
                     id="g5136"><g
                       id="g5138" /><g
                       mask="url(#mask5108)"
                       id="g5140"><g
                         id="g5142"><path
                           d="m 509,-11 -567,0 0,304 567,0 0,-304 z"
                           style="fill:url(#radialGradient5120);stroke:none"
                           id="path5144"
                           inkscape:connector-curvature="0" /></g></g></g></g></g></g></g></g></g></g><g
       id="g5146"><g
         id="g5148"
         clip-path="url(#clipPath5150)"><g
           id="g5154"><g
             id="g5156" /><g
             id="g5198"><g
               clip-path="url(#clipPath5158)"
               id="g5200"
               style="opacity:0.5"><g
                 id="g5202"><g
                   clip-path="url(#clipPath5162)"
                   id="g5204"><g
                     id="g5206"><g
                       id="g5208" /><g
                       mask="url(#mask5178)"
                       id="g5210"><g
                         id="g5212"><path
                           d="m 613.5,-44.5 -787,0 0,369 787,0 0,-369 z"
                           style="fill:url(#radialGradient5190);stroke:none"
                           id="path5214"
                           inkscape:connector-curvature="0" /></g></g></g></g></g><path
                 d="m 613.5,-44.5 -787,0 0,369 787,0 0,-369 z"
                 style="fill:none;stroke:#000000;stroke-width:1;stroke-linecap:butt;stroke-linejoin:miter;stroke-miterlimit:10;stroke-dasharray:none;stroke-opacity:1"
                 id="path5216"
                 inkscape:connector-curvature="0" /></g></g></g></g></g><g
       id="g5218"><g
         id="g5220"
         clip-path="url(#clipPath5222)"><g
           id="g5226"
           transform="translate(195.6182,187.2456)"><path
             d="m 0,0 c 0,-18.693 -15.153,-33.845 -33.847,-33.845 -18.692,0 -33.846,15.152 -33.846,33.845 0,18.694 15.154,33.851 33.846,33.851 C -15.153,33.851 0,18.694 0,0"
             style="fill:#77a8d6;fill-opacity:1;fill-rule:nonzero;stroke:none"
             id="path5228"
             inkscape:connector-curvature="0" /></g><g
           id="g5230"
           transform="translate(195.6182,187.2456)"><path
             d="m 0,0 c 0,-18.693 -15.153,-33.845 -33.847,-33.845 -18.692,0 -33.846,15.152 -33.846,33.845 0,18.694 15.154,33.851 33.846,33.851 C -15.153,33.851 0,18.694 0,0 Z"
             style="fill:none;stroke:#000000;stroke-width:14.50500011;stroke-linecap:butt;stroke-linejoin:miter;stroke-miterlimit:10;stroke-dasharray:none;stroke-opacity:1"
             id="path5232"
             inkscape:connector-curvature="0" /></g><g
           id="g5234"
           transform="translate(195.6182,187.2456)"><path
             d="m 0,0 c 0,-18.693 -15.153,-33.845 -33.847,-33.845 -18.692,0 -33.846,15.152 -33.846,33.845 0,18.694 15.154,33.851 33.846,33.851 C -15.153,33.851 0,18.694 0,0"
             style="fill:#3e78a3;fill-opacity:1;fill-rule:nonzero;stroke:none"
             id="path5236"
             inkscape:connector-curvature="0" /></g><g
           id="g5238"
           transform="translate(189.6816,203.8013)"><path
             d="m 0,0 c 0,-9.164 -7.43,-16.592 -16.593,-16.592 -9.163,0 -16.592,7.428 -16.592,16.592 0,9.164 7.429,16.592 16.592,16.592 C -7.43,16.592 0,9.164 0,0"
             style="fill:#00324b;fill-opacity:1;fill-rule:nonzero;stroke:none"
             id="path5240"
             inkscape:connector-curvature="0" /></g><g
           id="g5242"><g
             id="g5244" /><g
             id="g5250"><g
               clip-path="url(#clipPath5246)"
               id="g5252"
               style="opacity:0.39999402"><g
                 transform="translate(194.957,201.1392)"
                 id="g5254"><path
                   d="m 0,0 c 0,-12.518 -10.148,-22.665 -22.666,-22.665 -12.517,0 -22.663,10.147 -22.663,22.665 0,12.517 10.146,22.664 22.663,22.664 C -10.148,22.664 0,12.517 0,0 Z"
                   style="fill:none;stroke:#99999a;stroke-width:5.2750001;stroke-linecap:butt;stroke-linejoin:miter;stroke-miterlimit:10;stroke-dasharray:none;stroke-opacity:1"
                   id="path5256"
                   inkscape:connector-curvature="0" /></g></g></g></g><g
           id="g5258"><g
             id="g5260" /><g
             id="g5266"><g
               clip-path="url(#clipPath5262)"
               id="g5268"
               style="opacity:0.39999402"><g
                 transform="translate(195.6182,197.1899)"
                 id="g5270"><path
                   d="m 0,0 c 0,-15.17 -12.299,-27.469 -27.47,-27.469 -15.17,0 -27.468,12.299 -27.468,27.469 0,15.17 12.298,27.471 27.468,27.471 C -12.299,27.471 0,15.17 0,0 Z"
                   style="fill:none;stroke:#cfd3d6;stroke-width:5.2750001;stroke-linecap:butt;stroke-linejoin:miter;stroke-miterlimit:10;stroke-dasharray:none;stroke-opacity:1"
                   id="path5272"
                   inkscape:connector-curvature="0" /></g></g></g></g><g
           id="g5274"><g
             id="g5276" /><g
             id="g5282"><g
               clip-path="url(#clipPath5278)"
               id="g5284"
               style="opacity:0.39999402"><g
                 transform="translate(181.125,210.9507)"
                 id="g5286"><path
                   d="m 0,0 c 9.927,-7.842 10.459,-23.714 1.187,-35.449 -9.274,-11.739 -24.836,-14.892 -34.766,-7.052 -9.926,7.844 -10.459,23.717 -1.184,35.453 C -25.491,4.687 -9.927,7.846 0,0"
                   style="fill:#ffffff;fill-opacity:1;fill-rule:nonzero;stroke:none"
                   id="path5288"
                   inkscape:connector-curvature="0" /></g></g></g></g><g
           id="g5290"><g
             id="g5292" /><g
             id="g5298"><g
               clip-path="url(#clipPath5294)"
               id="g5300"
               style="opacity:0.30000299"><g
                 transform="translate(181.125,210.9507)"
                 id="g5302"><path
                   d="m 0,0 c 9.927,-7.842 10.459,-23.714 1.187,-35.449 -9.274,-11.739 -24.836,-14.892 -34.766,-7.052 -9.926,7.844 -10.459,23.717 -1.184,35.453 C -25.491,4.687 -9.927,7.846 0,0"
                   style="fill:#ffffff;fill-opacity:1;fill-rule:nonzero;stroke:none"
                   id="path5304"
                   inkscape:connector-curvature="0" /></g></g></g></g><g
           id="g5306"
           transform="translate(195.6182,187.2456)"><path
             d="m 0,0 c 0,-18.693 -15.153,-33.845 -33.847,-33.845 -18.692,0 -33.846,15.152 -33.846,33.845 0,18.694 15.154,33.851 33.846,33.851 C -15.153,33.851 0,18.694 0,0 Z"
             style="fill:none;stroke:#000000;stroke-width:14.50500011;stroke-linecap:butt;stroke-linejoin:miter;stroke-miterlimit:10;stroke-dasharray:none;stroke-opacity:1"
             id="path5308"
             inkscape:connector-curvature="0" /></g><g
           id="g5310"
           transform="translate(152.5137,204.8501)"><path
             d="m 0,0 c 0,-1.598 -1.291,-2.888 -2.888,-2.888 -1.592,0 -2.884,1.29 -2.884,2.888 0,1.594 1.292,2.887 2.884,2.887 C -1.291,2.887 0,1.594 0,0"
             style="fill:#ffffff;fill-opacity:1;fill-rule:nonzero;stroke:none"
             id="path5312"
             inkscape:connector-curvature="0" /></g><g
           id="g5314"
           transform="translate(244.3809,187.4937)"><path
             d="m 0,0 c 0,-18.693 15.154,-33.846 33.845,-33.846 18.696,0 33.847,15.153 33.847,33.846 0,18.694 -15.151,33.85 -33.847,33.85 C 15.154,33.85 0,18.694 0,0"
             style="fill:#77a8d6;fill-opacity:1;fill-rule:nonzero;stroke:none"
             id="path5316"
             inkscape:connector-curvature="0" /></g><g
           id="g5318"
           transform="translate(244.3809,187.4937)"><path
             d="m 0,0 c 0,-18.693 15.154,-33.846 33.845,-33.846 18.696,0 33.847,15.153 33.847,33.846 0,18.694 -15.151,33.85 -33.847,33.85 C 15.154,33.85 0,18.694 0,0 Z"
             style="fill:none;stroke:#000000;stroke-width:14.50500011;stroke-linecap:butt;stroke-linejoin:miter;stroke-miterlimit:10;stroke-dasharray:none;stroke-opacity:1"
             id="path5320"
             inkscape:connector-curvature="0" /></g><g
           id="g5322"
           transform="translate(244.3809,187.4937)"><path
             d="m 0,0 c 0,-18.693 15.154,-33.846 33.845,-33.846 18.696,0 33.847,15.153 33.847,33.846 0,18.694 -15.151,33.85 -33.847,33.85 C 15.154,33.85 0,18.694 0,0"
             style="fill:#3e78a3;fill-opacity:1;fill-rule:nonzero;stroke:none"
             id="path5324"
             inkscape:connector-curvature="0" /></g><g
           id="g5326"
           transform="translate(250.3174,204.0483)"><path
             d="m 0,0 c 0,-9.163 7.431,-16.591 16.592,-16.591 9.163,0 16.594,7.428 16.594,16.591 0,9.164 -7.431,16.592 -16.594,16.592 C 7.431,16.592 0,9.164 0,0"
             style="fill:#00324b;fill-opacity:1;fill-rule:nonzero;stroke:none"
             id="path5328"
             inkscape:connector-curvature="0" /></g><g
           id="g5330"><g
             id="g5332" /><g
             id="g5338"><g
               clip-path="url(#clipPath5334)"
               id="g5340"
               style="opacity:0.39999402"><g
                 transform="translate(245.043,201.3853)"
                 id="g5342"><path
                   d="M 0,0 C 0,-12.517 10.147,-22.664 22.666,-22.664 35.183,-22.664 45.33,-12.517 45.33,0 45.33,12.518 35.183,22.665 22.666,22.665 10.147,22.665 0,12.518 0,0 Z"
                   style="fill:none;stroke:#99999a;stroke-width:5.2750001;stroke-linecap:butt;stroke-linejoin:miter;stroke-miterlimit:10;stroke-dasharray:none;stroke-opacity:1"
                   id="path5344"
                   inkscape:connector-curvature="0" /></g></g></g></g><g
           id="g5346"><g
             id="g5348" /><g
             id="g5354"><g
               clip-path="url(#clipPath5350)"
               id="g5356"
               style="opacity:0.39999402"><g
                 transform="translate(244.3809,197.437)"
                 id="g5358"><path
                   d="m 0,0 c 0,-15.17 12.301,-27.469 27.468,-27.469 15.173,0 27.471,12.299 27.471,27.469 0,15.17 -12.298,27.47 -27.471,27.47 C 12.301,27.47 0,15.17 0,0 Z"
                   style="fill:none;stroke:#cfd3d6;stroke-width:5.2750001;stroke-linecap:butt;stroke-linejoin:miter;stroke-miterlimit:10;stroke-dasharray:none;stroke-opacity:1"
                   id="path5360"
                   inkscape:connector-curvature="0" /></g></g></g></g><g
           id="g5362"><g
             id="g5364" /><g
             id="g5370"><g
               clip-path="url(#clipPath5366)"
               id="g5372"
               style="opacity:0.39999402"><g
                 transform="translate(258.874,211.1987)"
                 id="g5374"><path
                   d="m 0,0 c -9.929,-7.843 -10.46,-23.715 -1.187,-35.45 9.273,-11.739 24.836,-14.893 34.767,-7.052 9.925,7.843 10.458,23.717 1.184,35.455 C 25.492,4.687 9.925,7.845 0,0"
                   style="fill:#ffffff;fill-opacity:1;fill-rule:nonzero;stroke:none"
                   id="path5376"
                   inkscape:connector-curvature="0" /></g></g></g></g><g
           id="g5378"><g
             id="g5380" /><g
             id="g5386"><g
               clip-path="url(#clipPath5382)"
               id="g5388"
               style="opacity:0.30000299"><g
                 transform="translate(258.874,211.1987)"
                 id="g5390"><path
                   d="m 0,0 c -9.929,-7.843 -10.46,-23.715 -1.187,-35.45 9.273,-11.739 24.836,-14.893 34.767,-7.052 9.925,7.843 10.458,23.717 1.184,35.455 C 25.492,4.687 9.925,7.845 0,0"
                   style="fill:#ffffff;fill-opacity:1;fill-rule:nonzero;stroke:none"
                   id="path5392"
                   inkscape:connector-curvature="0" /></g></g></g></g><g
           id="g5394"
           transform="translate(244.3809,187.4937)"><path
             d="m 0,0 c 0,-18.693 15.154,-33.846 33.845,-33.846 18.696,0 33.847,15.153 33.847,33.846 0,18.694 -15.151,33.85 -33.847,33.85 C 15.154,33.85 0,18.694 0,0 Z"
             style="fill:none;stroke:#000000;stroke-width:14.50500011;stroke-linecap:butt;stroke-linejoin:miter;stroke-miterlimit:10;stroke-dasharray:none;stroke-opacity:1"
             id="path5396"
             inkscape:connector-curvature="0" /></g><g
           id="g5398"
           transform="translate(258.9727,201.9624)"><path
             d="m 0,0 c 0,-1.596 1.291,-2.887 2.887,-2.887 1.592,0 2.885,1.291 2.885,2.887 0,1.595 -1.293,2.888 -2.885,2.888 C 1.291,2.888 0,1.595 0,0"
             style="fill:#ffffff;fill-opacity:1;fill-rule:nonzero;stroke:none"
             id="path5400"
             inkscape:connector-curvature="0" /></g><g
           id="g5402"
           transform="translate(204.3213,225.812)"><path
             d="m 0,0 c 1.971,-9.773 4.918,-31.592 -11.75,-31.592 -7.087,0 -11.159,23.713 -24.821,25.104 -18.469,1.881 -39.825,-17.86 -39.825,-12.128 0,9.97 27.387,27.924 44.056,27.924 C -15.673,9.308 -1.878,9.316 0,0"
             style="fill:#000000;fill-opacity:1;fill-rule:nonzero;stroke:none"
             id="path5404"
             inkscape:connector-curvature="0" /></g><g
           id="g5406"
           transform="translate(235.6797,225.7729)"><path
             d="m 0,0 c -1.974,-9.772 -4.92,-31.591 11.75,-31.591 7.084,0 11.159,23.713 24.818,25.104 18.471,1.88 39.826,-17.859 39.826,-12.128 0,9.969 -27.386,27.924 -44.056,27.924 C 15.672,9.309 1.877,9.317 0,0"
             style="fill:#000000;fill-opacity:1;fill-rule:nonzero;stroke:none"
             id="path5408"
             inkscape:connector-curvature="0" /></g><g
           id="g5410"
           transform="translate(244.6123,192.3638)"><path
             d="m 0,0 c 0,-14.799 -11.116,15.43 -24.827,15.43 -13.712,0 -24.828,-30.229 -24.828,-15.43 0,14.799 11.116,26.796 24.828,26.796 C -11.116,26.796 0,14.799 0,0"
             style="fill:#000000;fill-opacity:1;fill-rule:nonzero;stroke:none"
             id="path5412"
             inkscape:connector-curvature="0" /></g><g
           id="g5414"
           transform="translate(231.209,219.1597)"><path
             d="m 0,0 c 0,-6.31 -5.116,-11.423 -11.424,-11.423 -6.308,0 -11.423,5.113 -11.423,11.423 0,6.309 5.115,11.422 11.423,11.422 C -5.116,11.422 0,6.309 0,0"
             style="fill:#b3b3b3;fill-opacity:1;fill-rule:nonzero;stroke:none"
             id="path5416"
             inkscape:connector-curvature="0" /></g><g
           id="g5418"
           transform="translate(231.209,219.1597)"><path
             d="m 0,0 c 0,-6.31 -5.116,-11.423 -11.424,-11.423 -6.308,0 -11.423,5.113 -11.423,11.423 0,6.309 5.115,11.422 11.423,11.422 C -5.116,11.422 0,6.309 0,0 Z"
             style="fill:none;stroke:#000000;stroke-width:9.23099995;stroke-linecap:butt;stroke-linejoin:miter;stroke-miterlimit:10;stroke-dasharray:none;stroke-opacity:1"
             id="path5420"
             inkscape:connector-curvature="0" /></g><g
           id="g5422"
           transform="translate(228.3398,219.1597)"><path
             d="m 0,0 c 0,-4.727 -3.831,-8.557 -8.555,-8.557 -4.724,0 -8.557,3.83 -8.557,8.557 0,4.726 3.833,8.556 8.557,8.556 C -3.831,8.556 0,4.726 0,0 Z"
             style="fill:none;stroke:#6a7982;stroke-width:1.31900001;stroke-linecap:butt;stroke-linejoin:miter;stroke-miterlimit:10;stroke-dasharray:none;stroke-opacity:1"
             id="path5424"
             inkscape:connector-curvature="0" /></g><g
           id="g5426"
           transform="translate(244.3809,187.2095)"><path
             d="m 0,0 c 0,-18.692 15.154,-33.848 33.845,-33.848 18.696,0 33.847,15.156 33.847,33.848 0,18.693 -15.151,33.847 -33.847,33.847 C 15.154,33.847 0,18.693 0,0 Z"
             style="fill:none;stroke:#939393;stroke-width:2.63700008;stroke-linecap:butt;stroke-linejoin:miter;stroke-miterlimit:10;stroke-dasharray:none;stroke-opacity:1"
             id="path5428"
             inkscape:connector-curvature="0" /></g><g
           id="g5430"
           transform="translate(240.6201,187.2075)"><path
             d="m 0,0 c 0,-20.768 16.838,-37.605 37.605,-37.605 20.771,0 37.611,16.837 37.611,37.605 0,20.771 -16.84,37.61 -37.611,37.61 C 16.838,37.61 0,20.771 0,0 Z"
             style="fill:none;stroke:#4e4e4e;stroke-width:1.31900001;stroke-linecap:butt;stroke-linejoin:miter;stroke-miterlimit:10;stroke-dasharray:none;stroke-opacity:1"
             id="path5432"
             inkscape:connector-curvature="0" /></g><g
           id="g5434"
           transform="translate(127.9248,187.2095)"><path
             d="m 0,0 c 0,-18.692 15.154,-33.848 33.847,-33.848 18.693,0 33.846,15.156 33.846,33.848 0,18.693 -15.153,33.847 -33.846,33.847 C 15.154,33.847 0,18.693 0,0 Z"
             style="fill:none;stroke:#939393;stroke-width:2.63700008;stroke-linecap:butt;stroke-linejoin:miter;stroke-miterlimit:10;stroke-dasharray:none;stroke-opacity:1"
             id="path5436"
             inkscape:connector-curvature="0" /></g><g
           id="g5438"
           transform="translate(124.1641,187.2075)"><path
             d="m 0,0 c 0,-20.768 16.838,-37.605 37.606,-37.605 20.771,0 37.609,16.837 37.609,37.605 0,20.771 -16.838,37.61 -37.609,37.61 C 16.838,37.61 0,20.771 0,0 Z"
             style="fill:none;stroke:#4e4e4e;stroke-width:1.31900001;stroke-linecap:butt;stroke-linejoin:miter;stroke-miterlimit:10;stroke-dasharray:none;stroke-opacity:1"
             id="path5440"
             inkscape:connector-curvature="0" /></g><g
           id="g5442"
           transform="translate(147.6416,198.0991)"><path
             d="m 0,0 c -1.798,-2.396 -4.256,-3.588 -5.49,-2.662 -1.234,0.928 -0.779,3.62 1.02,6.016 1.796,2.395 4.254,3.585 5.489,2.66 C 2.253,5.087 1.798,2.396 0,0"
             style="fill:#ffffff;fill-opacity:1;fill-rule:nonzero;stroke:none"
             id="path5444"
             inkscape:connector-curvature="0" /></g><g
           id="g5446"
           transform="translate(260.1445,194.8101)"><path
             d="m 0,0 c -1.8,-2.396 -4.255,-3.585 -5.489,-2.66 -1.235,0.927 -0.779,3.62 1.019,6.014 1.796,2.396 4.256,3.587 5.49,2.66 C 2.253,5.09 1.797,2.396 0,0"
             style="fill:#ffffff;fill-opacity:1;fill-rule:nonzero;stroke:none"
             id="path5448"
             inkscape:connector-curvature="0" /></g><g
           id="g5450"
           transform="translate(196.5977,230.5815)"><path
             d="M 0,0 C 0,0 1.833,1.049 3.948,-1.913 6.063,-4.875 5.641,-8.071 5.5,-8.543 5.358,-9.012 0.826,-19.937 -2.277,-20.924 c 0,0 -2.898,4.683 -5.388,5.854 C -2.68,-13.055 -0.142,-6.426 0,0"
             style="fill:#6e6e6e;fill-opacity:1;fill-rule:nonzero;stroke:none"
             id="path5452"
             inkscape:connector-curvature="0" /></g><g
           id="g5454"
           transform="translate(196.5977,230.5815)"><path
             d="M 0,0 C 0,0 1.833,1.049 3.948,-1.913 6.063,-4.875 5.641,-8.071 5.5,-8.543 5.358,-9.012 0.826,-19.937 -2.277,-20.924 c 0,0 -2.898,4.683 -5.388,5.854 C -2.68,-13.055 -0.142,-6.426 0,0"
             style="fill:#393939;fill-opacity:1;fill-rule:nonzero;stroke:none"
             id="path5456"
             inkscape:connector-curvature="0" /></g><g
           id="g5458"
           transform="translate(239.7744,230.0181)"><path
             d="m 0,0 c 0,0 -2.104,0.154 -2.738,-3.431 -0.633,-3.584 1.129,-6.287 1.456,-6.65 0.33,-0.363 6.565,-7.971 9.793,-7.525 0,0 4.373,5.398 7.474,6.748 C 10.617,-11.186 2.897,-5.741 0,0"
             style="fill:#393939;fill-opacity:1;fill-rule:nonzero;stroke:none"
             id="path5460"
             inkscape:connector-curvature="0" /></g><g
           id="g5462"
           transform="translate(222.4639,224.6577)"><path
             d="m 0,0 c 0,-0.7 -0.567,-1.269 -1.269,-1.269 -0.701,0 -1.268,0.569 -1.268,1.269 0,0.703 0.567,1.271 1.268,1.271 C -0.567,1.271 0,0.703 0,0"
             style="fill:#ffffff;fill-opacity:1;fill-rule:nonzero;stroke:none"
             id="path5464"
             inkscape:connector-curvature="0" /></g><g
           id="g5466"
           transform="translate(224.4668,221.8042)"><path
             d="m 0,0 c -0.354,-0.394 -1.351,-0.08 -2.217,0.706 -0.87,0.785 -1.281,1.741 -0.927,2.136 0.358,0.395 1.355,0.079 2.22,-0.704 C -0.056,1.353 0.356,0.395 0,0"
             style="fill:#ffffff;fill-opacity:1;fill-rule:nonzero;stroke:none"
             id="path5468"
             inkscape:connector-curvature="0" /></g></g></g><text
       transform="matrix(1,0,0,-1,146.4995,70.2637)"
       style="font-variant:normal;font-weight:300;font-stretch:normal;font-size:68.00540161px;font-family:'Futura Std Light';-inkscape-font-specification:FuturaStd-Light;writing-mode:lr-tb;fill:#ffffff;fill-opacity:1;fill-rule:nonzero;stroke:none"
       id="text5470"><tspan
         x="0 50.596016 95.139557"
         y="0"
         sodipodi:role="line"
         id="tspan5472">SVG</tspan></text>
<text
       transform="matrix(1,0,0,-1,132.7979,38.21)"
       style="font-variant:normal;font-weight:300;font-stretch:normal;font-size:31.18759918px;font-family:'Futura Std Light';-inkscape-font-specification:FuturaStd-Light;writing-mode:lr-tb;fill:#9dafc6;fill-opacity:1;fill-rule:nonzero;stroke:none"
       id="text5474"><tspan
         x="0 32.528667 56.231243 75.972992 89.508415 113.4293 137.13188 149.8876 173.18474"
         y="0"
         sodipodi:role="line"
         id="tspan5476">Navigator</tspan></text>
</g></svg>