<?xml version="1.0" encoding="UTF-8" standalone="no"?>
<!-- Created with Inkscape (http://www.inkscape.org/) -->

<svg
   xmlns:dc="http://purl.org/dc/elements/1.1/"
   xmlns:cc="http://creativecommons.org/ns#"
   xmlns:rdf="http://www.w3.org/1999/02/22-rdf-syntax-ns#"
   xmlns:svg="http://www.w3.org/2000/svg"
   xmlns="http://www.w3.org/2000/svg"
   xmlns:sodipodi="http://sodipodi.sourceforge.net/DTD/sodipodi-0.dtd"
   xmlns:inkscape="http://www.inkscape.org/namespaces/inkscape"
   id="svg4050"
   version="1.1"
   inkscape:version="0.91 r13725"
   xml:space="preserve"
   width="1150"
   height="850"
   viewBox="0 0 1150 850"
   sodipodi:docname="banner_final md.svg"><metadata
     id="metadata4056"><rdf:RDF><cc:Work
         rdf:about=""><dc:format>image/svg+xml</dc:format><dc:type
           rdf:resource="http://purl.org/dc/dcmitype/StillImage" /><dc:title></dc:title></cc:Work></rdf:RDF></metadata><defs
     id="defs4054"><clipPath
       clipPathUnits="userSpaceOnUse"
       id="clipPath4114"><path
         d="M 0,680 920,680 920,0 0,0 0,680 Z"
         id="path4116"
         inkscape:connector-curvature="0" /></clipPath><clipPath
       clipPathUnits="userSpaceOnUse"
       id="clipPath4122"><path
         d="m -96,688 1111,0 0,-697 -1111,0 0,697 z"
         id="path4124"
         inkscape:connector-curvature="0" /></clipPath><pattern
       patternTransform="translate(240,480)"
       patternUnits="userSpaceOnUse"
       x="0"
       y="0"
       width="85.602"
       height="148.268"
       id="pattern4126"><g
         transform="translate(42.6011,24.8252)"
         id="g4128"><path
           d="M 0,0 0,0.174 21.417,12.624 -0.302,0.174 -0.001,0 0,0 Z"
           style="fill:#2121b7;fill-opacity:1;fill-rule:nonzero;stroke:none"
           id="path4130" /></g><g
         transform="translate(85.602,49.6504)"
         id="g4132"><path
           d="M 0,0 0,0.001 0,0.349 -21.584,-12.201 -0.15,0.087 0,0 Z"
           style="fill:#2121b7;fill-opacity:1;fill-rule:nonzero;stroke:none"
           id="path4134" /></g><g
         transform="translate(42.6011,24.8252)"
         id="g4136"><path
           d="M 0,0 43.001,24.825 42.85,24.912 21.417,12.624 0,0.174 0,0 Z"
           style="fill:#2121b7;fill-opacity:1;fill-rule:nonzero;stroke:none"
           id="path4138" /></g><g
         transform="translate(42.6011,24.8252)"
         id="g4140"><path
           d="M 0,0 0,-49.652 43.001,-24.826 0,0 Z"
           style="fill:#196c7f;fill-opacity:1;fill-rule:nonzero;stroke:none"
           id="path4142" /></g><g
         transform="translate(85.602,-9e-4)"
         id="g4144"><path
           d="M 0,0 0,49.65 0,49.651 -43.001,24.826 0,0 Z"
           style="fill:#196172;fill-opacity:1;fill-rule:nonzero;stroke:none"
           id="path4146" /></g><g
         transform="translate(43.0005,24.8252)"
         id="g4148"><path
           d="M 0,0 0.301,0.174 -21.354,12.59 0,0.174 0,0 Z"
           style="fill:#2121b7;fill-opacity:1;fill-rule:nonzero;stroke:none"
           id="path4150" /></g><g
         transform="translate(0.1528,49.7383)"
         id="g4152"><path
           d="M 0,0 21.494,-12.323 -0.15,0.261 l -0.002,0 0,-0.348 L 0,0 Z"
           style="fill:#2121b7;fill-opacity:1;fill-rule:nonzero;stroke:none"
           id="path4154" /></g><g
         transform="translate(5e-4,49.6514)"
         id="g4156"><path
           d="m 0,0 0,-0.002 43,-24.824 0,0.174 L 21.646,-12.236 0.152,0.087 0,0 Z"
           style="fill:#2121b7;fill-opacity:1;fill-rule:nonzero;stroke:none"
           id="path4158" /></g><g
         transform="translate(43.0005,24.8252)"
         id="g4160"><path
           d="m 0,0 -43,24.824 0,-49.65 L 0,0 Z"
           style="fill:#2e6368;fill-opacity:1;fill-rule:nonzero;stroke:none"
           id="path4162" /></g><g
         transform="translate(43.0005,24.8243)"
         id="g4164"><path
           d="M 0,0 0,0.001 -43,-24.825 0,-49.651 0,0 Z"
           style="fill:#1e5d68;fill-opacity:1;fill-rule:nonzero;stroke:none"
           id="path4166" /></g><g
         transform="translate(85.4028,49.1329)"
         id="g4168"><path
           d="M 0,0 -0.001,0 -0.302,-0.086 21.442,-12.51 0,0 Z"
           style="fill:#325c63;fill-opacity:1;fill-rule:nonzero;stroke:none"
           id="path4170" /></g><g
         transform="translate(85.4028,98.959)"
         id="g4172"><path
           d="M 0,0 0,0.174 21.417,12.624 -0.302,0.174 -0.001,0 0,0 Z"
           style="fill:#2121b7;fill-opacity:1;fill-rule:nonzero;stroke:none"
           id="path4174" /></g><g
         transform="translate(128.4038,24.4786)"
         id="g4176"><path
           d="m 0,0 -43.001,24.826 0,-0.172 L -21.559,12.188 -0.15,-0.086 0,0 Z"
           style="fill:#325c63;fill-opacity:1;fill-rule:nonzero;stroke:none"
           id="path4178" /></g><g
         transform="translate(85.4028,98.959)"
         id="g4180"><path
           d="M 0,0 43.001,24.825 42.851,24.912 21.417,12.624 0,0.174 0,0 Z"
           style="fill:#2121b7;fill-opacity:1;fill-rule:nonzero;stroke:none"
           id="path4182" /></g><g
         transform="translate(128.4038,74.1329)"
         id="g4184"><path
           d="m 0,0 -43.001,-24.826 0,-0.002 L 0,-50 0,0 Z"
           style="fill:#325c63;fill-opacity:1;fill-rule:nonzero;stroke:none"
           id="path4186" /></g><g
         transform="translate(85.4028,98.959)"
         id="g4188"><path
           d="M 0,0 0,-49.652 43.001,-24.826 0,0 Z"
           style="fill:#196c7f;fill-opacity:1;fill-rule:nonzero;stroke:none"
           id="path4190" /></g><g
         transform="translate(128.4038,74.1329)"
         id="g4192"><path
           d="M 0,0 0,49.65 0,49.651 -43.001,24.826 0,0 Z"
           style="fill:#196172;fill-opacity:1;fill-rule:nonzero;stroke:none"
           id="path4194" /></g><g
         transform="translate(-0.1997,49.1329)"
         id="g4196"><path
           d="M 0,0 -0.001,0 -0.302,-0.086 21.442,-12.51 0,0 Z"
           style="fill:#325c63;fill-opacity:1;fill-rule:nonzero;stroke:none"
           id="path4198" /></g><g
         transform="translate(85.8013,98.959)"
         id="g4200"><path
           d="M 0,0 0.301,0.174 -21.354,12.59 0,0.174 0,0 Z"
           style="fill:#2121b7;fill-opacity:1;fill-rule:nonzero;stroke:none"
           id="path4202" /></g><g
         transform="translate(85.8013,49.3067)"
         id="g4204"><path
           d="M 0,0 0,-0.176 -21.318,-12.57 0.301,-0.174 0,0 Z"
           style="fill:#2b6872;fill-opacity:1;fill-rule:nonzero;stroke:none"
           id="path4206" /></g><g
         transform="translate(-0.1997,98.959)"
         id="g4208"><path
           d="M 0,0 0,0.174 21.417,12.624 -0.302,0.174 -0.001,0 0,0 Z"
           style="fill:#2121b7;fill-opacity:1;fill-rule:nonzero;stroke:none"
           id="path4210" /></g><g
         transform="translate(42.9536,123.8721)"
         id="g4212"><path
           d="M 0,0 21.494,-12.323 -0.15,0.261 l -0.002,0 0,-0.348 L 0,0 Z"
           style="fill:#2121b7;fill-opacity:1;fill-rule:nonzero;stroke:none"
           id="path4214" /></g><g
         transform="translate(42.8013,123.7842)"
         id="g4216"><path
           d="M 0,0 0,0.001 0,0.349 -21.584,-12.201 -0.15,0.087 0,0 Z"
           style="fill:#2121b7;fill-opacity:1;fill-rule:nonzero;stroke:none"
           id="path4218" /></g><g
         transform="translate(42.8013,24.1329)"
         id="g4220"><path
           d="M 0,0 -0.15,0.088 -21.559,12.447 0,0 Z"
           style="fill:#2121b7;fill-opacity:1;fill-rule:nonzero;stroke:none"
           id="path4222" /></g><g
         transform="translate(42.8013,24.4786)"
         id="g4224"><path
           d="m 0,0 0,-0.346 0.002,0 21.68,12.604 L 0.15,-0.086 0,0 Z"
           style="fill:#2b6872;fill-opacity:1;fill-rule:nonzero;stroke:none"
           id="path4226" /></g><g
         transform="translate(42.8013,123.7852)"
         id="g4228"><path
           d="M 0,0 0,-0.001 0,-0.002 0,0 Z"
           style="fill:#2121b7;fill-opacity:1;fill-rule:nonzero;stroke:none"
           id="path4230" /></g><g
         transform="translate(42.8013,123.7852)"
         id="g4232"><path
           d="m 0,0 0,-0.002 43,-24.824 0,0.174 L 21.646,-12.236 0.152,0.087 0,0 Z"
           style="fill:#2121b7;fill-opacity:1;fill-rule:nonzero;stroke:none"
           id="path4234" /></g><g
         transform="translate(42.8013,24.4786)"
         id="g4236"><path
           d="m 0,0 -43.001,24.826 0,-0.172 L -21.559,12.188 -0.15,-0.086 0,0 Z"
           style="fill:#325c63;fill-opacity:1;fill-rule:nonzero;stroke:none"
           id="path4238" /></g><g
         transform="translate(85.8013,49.3067)"
         id="g4240"><path
           d="m 0,0 0,0 -43,-24.826 0,-0.002 0.15,-0.086 21.532,12.344 L 0,-0.176 0,0 Z"
           style="fill:#2b6872;fill-opacity:1;fill-rule:nonzero;stroke:none"
           id="path4242" /></g><g
         transform="translate(42.8013,24.4786)"
         id="g4244"><path
           d="M 0,0 0,0.002 0,0 Z"
           style="fill:#2121b7;fill-opacity:1;fill-rule:nonzero;stroke:none"
           id="path4246" /></g><g
         transform="translate(-0.1997,98.959)"
         id="g4248"><path
           d="M 0,0 43.001,24.825 42.851,24.912 21.417,12.624 0,0.174 0,0 Z"
           style="fill:#2121b7;fill-opacity:1;fill-rule:nonzero;stroke:none"
           id="path4250" /></g><g
         transform="translate(85.8013,98.959)"
         id="g4252"><path
           d="m 0,0 -43,24.824 0,-49.65 L 0,0 Z"
           style="fill:#2e6368;fill-opacity:1;fill-rule:nonzero;stroke:none"
           id="path4254" /></g><g
         transform="translate(85.8013,98.9581)"
         id="g4256"><path
           d="M 0,0 0,0.001 -43,-24.825 0,-49.651 0,0 Z"
           style="fill:#1e5d68;fill-opacity:1;fill-rule:nonzero;stroke:none"
           id="path4258" /></g><g
         transform="translate(42.8013,24.4805)"
         id="g4260"><path
           d="M 0,0 43,24.826 0,49.652 0,0 Z"
           style="fill:#2b6872;fill-opacity:1;fill-rule:nonzero;stroke:none"
           id="path4262" /></g><g
         transform="translate(42.8013,74.1329)"
         id="g4264"><path
           d="M 0,0 Z"
           style="fill:#2121b7;fill-opacity:1;fill-rule:nonzero;stroke:none"
           id="path4266" /></g><g
         transform="translate(42.8013,74.1329)"
         id="g4268"><path
           d="m 0,0 -43.001,-24.826 0,-0.002 L 0,-50 0,0 Z"
           style="fill:#325c63;fill-opacity:1;fill-rule:nonzero;stroke:none"
           id="path4270" /></g><g
         transform="translate(-0.1997,98.959)"
         id="g4272"><path
           d="M 0,0 0,-49.652 43.001,-24.826 0,0 Z"
           style="fill:#196c7f;fill-opacity:1;fill-rule:nonzero;stroke:none"
           id="path4274" /></g><g
         transform="translate(42.8013,74.1329)"
         id="g4276"><path
           d="M 0,0 0,49.65 0,49.651 -43.001,24.826 0,0 Z"
           style="fill:#196172;fill-opacity:1;fill-rule:nonzero;stroke:none"
           id="path4278" /></g><g
         transform="translate(0.1992,98.959)"
         id="g4280"><path
           d="M 0,0 0.301,0.174 -21.354,12.59 0,0.174 0,0 Z"
           style="fill:#2121b7;fill-opacity:1;fill-rule:nonzero;stroke:none"
           id="path4282" /></g><g
         transform="translate(0.1992,49.3067)"
         id="g4284"><path
           d="M 0,0 0,-0.176 -21.318,-12.57 0.301,-0.174 0,0 Z"
           style="fill:#2b6872;fill-opacity:1;fill-rule:nonzero;stroke:none"
           id="path4286" /></g><g
         transform="translate(-42.8008,123.7852)"
         id="g4288"><path
           d="m 0,0 0,-0.002 43,-24.824 0,0.174 L 21.646,-12.236 0.152,0.087 0,0 Z"
           style="fill:#2121b7;fill-opacity:1;fill-rule:nonzero;stroke:none"
           id="path4290" /></g><g
         transform="translate(0.1992,49.3067)"
         id="g4292"><path
           d="m 0,0 0,0 -43,-24.826 0,-0.002 0.15,-0.086 21.532,12.344 L 0,-0.176 0,0 Z"
           style="fill:#2b6872;fill-opacity:1;fill-rule:nonzero;stroke:none"
           id="path4294" /></g><g
         transform="translate(0.1992,98.959)"
         id="g4296"><path
           d="m 0,0 -43,24.824 0,-49.65 L 0,0 Z"
           style="fill:#2e6368;fill-opacity:1;fill-rule:nonzero;stroke:none"
           id="path4298" /></g><g
         transform="translate(0.1992,98.9581)"
         id="g4300"><path
           d="M 0,0 0,0.001 -43,-24.825 0,-49.651 0,0 Z"
           style="fill:#1e5d68;fill-opacity:1;fill-rule:nonzero;stroke:none"
           id="path4302" /></g><g
         transform="translate(-42.8008,24.4805)"
         id="g4304"><path
           d="M 0,0 43,24.826 0,49.652 0,0 Z"
           style="fill:#2b6872;fill-opacity:1;fill-rule:nonzero;stroke:none"
           id="path4306" /></g><g
         transform="translate(42.6011,123.2667)"
         id="g4308"><path
           d="M 0,0 -0.001,0 -0.302,-0.086 21.442,-12.51 0,0 Z"
           style="fill:#325c63;fill-opacity:1;fill-rule:nonzero;stroke:none"
           id="path4310" /></g><g
         transform="translate(85.602,98.2667)"
         id="g4312"><path
           d="M 0,0 -0.15,0.088 -21.559,12.447 0,0 Z"
           style="fill:#2121b7;fill-opacity:1;fill-rule:nonzero;stroke:none"
           id="path4314" /></g><g
         transform="translate(85.602,98.6124)"
         id="g4316"><path
           d="m 0,0 -43.001,24.826 0,-0.172 L -21.559,12.188 -0.15,-0.086 0,0 Z"
           style="fill:#325c63;fill-opacity:1;fill-rule:nonzero;stroke:none"
           id="path4318" /></g><g
         transform="translate(85.602,148.2667)"
         id="g4320"><path
           d="m 0,0 -43.001,-24.826 0,-0.002 L 0,-50 0,0 Z"
           style="fill:#325c63;fill-opacity:1;fill-rule:nonzero;stroke:none"
           id="path4322" /></g><g
         transform="translate(42.6011,173.0928)"
         id="g4324"><path
           d="M 0,0 0,-49.652 43.001,-24.826 0,0 Z"
           style="fill:#196c7f;fill-opacity:1;fill-rule:nonzero;stroke:none"
           id="path4326" /></g><g
         transform="translate(85.602,148.2667)"
         id="g4328"><path
           d="M 0,0 0,49.65 0,49.651 -43.001,24.826 0,0 Z"
           style="fill:#196172;fill-opacity:1;fill-rule:nonzero;stroke:none"
           id="path4330" /></g><g
         transform="translate(43.0005,123.4405)"
         id="g4332"><path
           d="M 0,0 0,-0.176 -21.318,-12.57 0.301,-0.174 0,0 Z"
           style="fill:#2b6872;fill-opacity:1;fill-rule:nonzero;stroke:none"
           id="path4334" /></g><g
         transform="translate(5e-4,98.6124)"
         id="g4336"><path
           d="m 0,0 0,-0.346 0.002,0 21.68,12.604 L 0.15,-0.086 0,0 Z"
           style="fill:#2b6872;fill-opacity:1;fill-rule:nonzero;stroke:none"
           id="path4338" /></g><g
         transform="translate(43.0005,123.4405)"
         id="g4340"><path
           d="m 0,0 0,0 -43,-24.826 0,-0.002 0.15,-0.086 21.532,12.344 L 0,-0.176 0,0 Z"
           style="fill:#2b6872;fill-opacity:1;fill-rule:nonzero;stroke:none"
           id="path4342" /></g><g
         transform="translate(43.0005,173.0928)"
         id="g4344"><path
           d="m 0,0 -43,24.824 0,-49.65 L 0,0 Z"
           style="fill:#2e6368;fill-opacity:1;fill-rule:nonzero;stroke:none"
           id="path4346" /></g><g
         transform="translate(43.0005,173.0918)"
         id="g4348"><path
           d="M 0,0 0,0.001 -43,-24.825 0,-49.651 0,0 Z"
           style="fill:#1e5d68;fill-opacity:1;fill-rule:nonzero;stroke:none"
           id="path4350" /></g><g
         transform="translate(5e-4,98.6143)"
         id="g4352"><path
           d="M 0,0 43,24.826 0,49.652 0,0 Z"
           style="fill:#2b6872;fill-opacity:1;fill-rule:nonzero;stroke:none"
           id="path4354" /></g></pattern><clipPath
       clipPathUnits="userSpaceOnUse"
       id="clipPath4366"><path
         d="M 0,680 920,680 920,0 0,0 0,680 Z"
         id="path4368"
         inkscape:connector-curvature="0" /></clipPath><clipPath
       clipPathUnits="userSpaceOnUse"
       id="clipPath4374"><path
         d="m -206,696 1332,0 0,-713 -1332,0 0,713 z"
         id="path4376"
         inkscape:connector-curvature="0" /></clipPath><clipPath
       clipPathUnits="userSpaceOnUse"
       id="clipPath4378"><path
         d="m 1126,-17 -1332,0 0,713 1332,0 0,-713 z"
         id="path4380"
         inkscape:connector-curvature="0" /></clipPath><radialGradient
       fx="0"
       fy="0"
       cx="0"
       cy="0"
       r="1"
       gradientUnits="userSpaceOnUse"
       gradientTransform="matrix(563.79736,0,0,-366.7919,459.99854,339.5)"
       spreadMethod="pad"
       id="radialGradient4386"><stop
         style="stop-opacity:0;stop-color:#ffffff"
         offset="0"
         id="stop4388" /><stop
         style="stop-opacity:1;stop-color:#ffffff"
         offset="0.78805933"
         id="stop4390" /><stop
         style="stop-opacity:1;stop-color:#ffffff"
         offset="1"
         id="stop4392" /></radialGradient><mask
       maskUnits="userSpaceOnUse"
       x="0"
       y="0"
       width="1"
       height="1"
       id="mask4394"><g
         id="g4396"><g
           id="g4398"><g
             id="g4400"><g
               id="g4402"><path
                 d="m -32768,32767 65535,0 0,-65535 -65535,0 0,65535 z"
                 style="fill:url(#radialGradient4386);stroke:none"
                 id="path4404"
                 inkscape:connector-curvature="0" /></g></g></g></g></mask><radialGradient
       fx="0"
       fy="0"
       cx="0"
       cy="0"
       r="1"
       gradientUnits="userSpaceOnUse"
       gradientTransform="matrix(563.79736,0,0,-366.7919,459.99854,339.5)"
       spreadMethod="pad"
       id="radialGradient4406"><stop
         style="stop-opacity:1;stop-color:#fcfad9"
         offset="0"
         id="stop4408" /><stop
         style="stop-opacity:1;stop-color:#000000"
         offset="0.78805933"
         id="stop4410" /><stop
         style="stop-opacity:1;stop-color:#000000"
         offset="1"
         id="stop4412" /></radialGradient><clipPath
       clipPathUnits="userSpaceOnUse"
       id="clipPath4436"><path
         d="M 0,680 920,680 920,0 0,0 0,680 Z"
         id="path4438"
         inkscape:connector-curvature="0" /></clipPath><clipPath
       clipPathUnits="userSpaceOnUse"
       id="clipPath4444"><path
         d="m -468,782 1852,0 0,-870 -1852,0 0,870 z"
         id="path4446"
         inkscape:connector-curvature="0" /></clipPath><clipPath
       clipPathUnits="userSpaceOnUse"
       id="clipPath4448"><path
         d="m 1382.5,-86.5 -1849,0 0,867 1849,0 0,-867 z"
         id="path4450"
         inkscape:connector-curvature="0" /></clipPath><radialGradient
       fx="0"
       fy="0"
       cx="0"
       cy="0"
       r="1"
       gradientUnits="userSpaceOnUse"
       gradientTransform="matrix(782.81274,0,0,-557.21692,458,347.00098)"
       spreadMethod="pad"
       id="radialGradient4456"><stop
         style="stop-opacity:1;stop-color:#ffffff"
         offset="0"
         id="stop4458" /><stop
         style="stop-opacity:1;stop-color:#ffffff"
         offset="0.17970929"
         id="stop4460" /><stop
         style="stop-opacity:0;stop-color:#ffffff"
         offset="1"
         id="stop4462" /></radialGradient><mask
       maskUnits="userSpaceOnUse"
       x="0"
       y="0"
       width="1"
       height="1"
       id="mask4464"><g
         id="g4466"><g
           id="g4468"><g
             id="g4470"><g
               id="g4472"><path
                 d="m -32768,32767 65535,0 0,-65535 -65535,0 0,65535 z"
                 style="fill:url(#radialGradient4456);stroke:none"
                 id="path4474"
                 inkscape:connector-curvature="0" /></g></g></g></g></mask><radialGradient
       fx="0"
       fy="0"
       cx="0"
       cy="0"
       r="1"
       gradientUnits="userSpaceOnUse"
       gradientTransform="matrix(782.81274,0,0,-557.21692,458,347.00098)"
       spreadMethod="pad"
       id="radialGradient4476"><stop
         style="stop-opacity:1;stop-color:#ffffff"
         offset="0"
         id="stop4478" /><stop
         style="stop-opacity:1;stop-color:#ffffff"
         offset="0.17970929"
         id="stop4480" /><stop
         style="stop-opacity:1;stop-color:#231f20"
         offset="1"
         id="stop4482" /></radialGradient><clipPath
       clipPathUnits="userSpaceOnUse"
       id="clipPath4508"><path
         d="M 0,680 920,680 920,0 0,0 0,680 Z"
         id="path4510"
         inkscape:connector-curvature="0" /></clipPath><clipPath
       clipPathUnits="userSpaceOnUse"
       id="clipPath4532"><path
         d="m 288.492,551.027 118.874,0 0,-118.874 -118.874,0 0,118.874 z"
         id="path4534"
         inkscape:connector-curvature="0" /></clipPath><clipPath
       clipPathUnits="userSpaceOnUse"
       id="clipPath4548"><path
         d="m 267.472,553.042 141.448,0 0,-141.451 -141.448,0 0,141.451 z"
         id="path4550"
         inkscape:connector-curvature="0" /></clipPath><clipPath
       clipPathUnits="userSpaceOnUse"
       id="clipPath4564"><path
         d="m 271.458,524.77 115.561,0 0,-120.094 -115.561,0 0,120.094 z"
         id="path4566"
         inkscape:connector-curvature="0" /></clipPath><clipPath
       clipPathUnits="userSpaceOnUse"
       id="clipPath4580"><path
         d="m 271.458,524.77 115.561,0 0,-120.094 -115.561,0 0,120.094 z"
         id="path4582"
         inkscape:connector-curvature="0" /></clipPath><clipPath
       clipPathUnits="userSpaceOnUse"
       id="clipPath4620"><path
         d="m 512.635,551.607 118.877,0 0,-118.874 -118.877,0 0,118.874 z"
         id="path4622"
         inkscape:connector-curvature="0" /></clipPath><clipPath
       clipPathUnits="userSpaceOnUse"
       id="clipPath4636"><path
         d="m 511.08,553.62 141.449,0 0,-141.448 -141.449,0 0,141.448 z"
         id="path4638"
         inkscape:connector-curvature="0" /></clipPath><clipPath
       clipPathUnits="userSpaceOnUse"
       id="clipPath4652"><path
         d="m 532.978,525.352 115.563,0 0,-120.097 -115.563,0 0,120.097 z"
         id="path4654"
         inkscape:connector-curvature="0" /></clipPath><clipPath
       clipPathUnits="userSpaceOnUse"
       id="clipPath4668"><path
         d="m 532.978,525.352 115.563,0 0,-120.097 -115.563,0 0,120.097 z"
         id="path4670"
         inkscape:connector-curvature="0" /></clipPath></defs><sodipodi:namedview
     pagecolor="#ffffff"
     bordercolor="#666666"
     borderopacity="1"
     objecttolerance="10"
     gridtolerance="10"
     guidetolerance="10"
     inkscape:pageopacity="0"
     inkscape:pageshadow="2"
     inkscape:window-width="640"
     inkscape:window-height="480"
     id="namedview4052"
     showgrid="false"
     inkscape:zoom="0.27764706"
     inkscape:cx="575"
     inkscape:cy="425"
     inkscape:window-x="0"
     inkscape:window-y="0"
     inkscape:window-maximized="0"
     inkscape:current-layer="g4058" /><g
     id="g4058"
     inkscape:groupmode="layer"
     inkscape:label="banner_final md"
     transform="matrix(1.25,0,0,-1.25,0,850)"><g
       id="g4060"
       transform="translate(416.9988,315.1728)"><path
         d="m 0,0 0.001,-0.001 0,0.002 L 0,0 Z"
         style="fill:#2121b7;fill-opacity:1;fill-rule:nonzero;stroke:none"
         id="path4062"
         inkscape:connector-curvature="0" /></g><g
       id="g4064"
       transform="translate(416.9988,364.8258)"><path
         d="M 0,0 0.001,0 0,0 Z"
         style="fill:#2121b7;fill-opacity:1;fill-rule:nonzero;stroke:none"
         id="path4066"
         inkscape:connector-curvature="0" /></g><g
       id="g4068"
       transform="translate(459.999,389.6514)"><path
         d="m 0,0 0.001,-0.001 0,0.002 L 0,0 Z"
         style="fill:#2121b7;fill-opacity:1;fill-rule:nonzero;stroke:none"
         id="path4070"
         inkscape:connector-curvature="0" /></g><g
       id="g4072"
       transform="translate(502.9992,364.8258)"><path
         d="M 0,0 0.001,-0.001 0.001,0 0,0 Z"
         style="fill:#2121b7;fill-opacity:1;fill-rule:nonzero;stroke:none"
         id="path4074"
         inkscape:connector-curvature="0" /></g><g
       id="g4076"
       transform="translate(459.9981,290.3463)"><path
         d="m 0,0 0.002,0 0,0.001 L 0,0 Z"
         style="fill:#2121b7;fill-opacity:1;fill-rule:nonzero;stroke:none"
         id="path4078"
         inkscape:connector-curvature="0" /></g><g
       id="g4080"
       transform="translate(502.999,364.8257)"><path
         d="m 0,0 -42.999,24.825 0,-49.65 L 0,0 Z"
         style="fill:#2c6891;fill-opacity:1;fill-rule:nonzero;stroke:none"
         id="path4082"
         inkscape:connector-curvature="0" /></g><g
       id="g4084"
       transform="translate(503,364.8252)"><path
         d="M 0,0 -0.001,0 -43,-24.825 -43,-24.826 0,-49.651 0,0 Z"
         style="fill:#0f0f4f;fill-opacity:1;fill-rule:nonzero;stroke:none"
         id="path4086"
         inkscape:connector-curvature="0" /></g><g
       id="g4088"
       transform="translate(460,290.3477)"><path
         d="M 0,0 43,24.826 0,49.652 0,0 Z"
         style="fill:#2121b7;fill-opacity:1;fill-rule:nonzero;stroke:none"
         id="path4090"
         inkscape:connector-curvature="0" /></g><g
       id="g4092"
       transform="translate(459.9999,339.9993)"><path
         d="M 0,0 0,0.001 0,0 Z"
         style="fill:#2121b7;fill-opacity:1;fill-rule:nonzero;stroke:none"
         id="path4094"
         inkscape:connector-curvature="0" /></g><g
       id="g4096"
       transform="translate(459.9995,340)"><path
         d="m 0,0 -43,-24.826 0,-0.002 L -0.001,-50 0,-50 0,0 Z"
         style="fill:#363689;fill-opacity:1;fill-rule:nonzero;stroke:none"
         id="path4098"
         inkscape:connector-curvature="0" /></g><g
       id="g4100"
       transform="translate(417,364.8257)"><path
         d="M 0,0 0,-49.652 43,-24.826 0,0 Z"
         style="fill:#b2b2db;fill-opacity:1;fill-rule:nonzero;stroke:none"
         id="path4102"
         inkscape:connector-curvature="0" /></g><g
       id="g4104"
       transform="translate(460,340.0005)"><path
         d="M 0,0 0,49.65 -0.001,49.651 -43,24.826 -43,24.825 0,0 Z"
         style="fill:#7777d8;fill-opacity:1;fill-rule:nonzero;stroke:none"
         id="path4106"
         inkscape:connector-curvature="0" /></g><path
       d="M 0,0 920,0 920,680 0,680 0,0 Z"
       style="fill:#070526;fill-opacity:1;fill-rule:nonzero;stroke:none"
       id="path4108"
       inkscape:connector-curvature="0" /><g
       id="g4110"><g
         id="g4112"
         clip-path="url(#clipPath4114)"><g
           id="g4118"><g
             id="g4120" /><g
             id="g4356"><g
               clip-path="url(#clipPath4122)"
               id="g4358"
               style="opacity:0.5"><path
                 d="m 1015,-9 -1111,0 0,697 1111,0 0,-697 z"
                 style="fill:url(#pattern4126);fill-opacity:1;fill-rule:nonzero;stroke:none"
                 id="path4360"
                 inkscape:connector-curvature="0" /></g></g></g></g></g><g
       id="g4362"><g
         id="g4364"
         clip-path="url(#clipPath4366)"><g
           id="g4370"><g
             id="g4372" /><g
             id="g4414"><g
               clip-path="url(#clipPath4374)"
               id="g4416"
               style="opacity:0.19999701"><g
                 id="g4418"><g
                   clip-path="url(#clipPath4378)"
                   id="g4420"><g
                     id="g4422"><g
                       id="g4424" /><g
                       mask="url(#mask4394)"
                       id="g4426"><g
                         id="g4428"><path
                           d="m 1126,-17 -1332,0 0,713 1332,0 0,-713 z"
                           style="fill:url(#radialGradient4406);stroke:none"
                           id="path4430"
                           inkscape:connector-curvature="0" /></g></g></g></g></g></g></g></g></g></g><g
       id="g4432"><g
         id="g4434"
         clip-path="url(#clipPath4436)"><g
           id="g4440"><g
             id="g4442" /><g
             id="g4484"><g
               clip-path="url(#clipPath4444)"
               id="g4486"
               style="opacity:0.5"><g
                 id="g4488"><g
                   clip-path="url(#clipPath4448)"
                   id="g4490"><g
                     id="g4492"><g
                       id="g4494" /><g
                       mask="url(#mask4464)"
                       id="g4496"><g
                         id="g4498"><path
                           d="m 1382.5,-86.5 -1849,0 0,867 1849,0 0,-867 z"
                           style="fill:url(#radialGradient4476);stroke:none"
                           id="path4500"
                           inkscape:connector-curvature="0" /></g></g></g></g></g><path
                 d="m 1382.5,-86.5 -1849,0 0,867 1849,0 0,-867 z"
                 style="fill:none;stroke:#000000;stroke-width:3;stroke-linecap:butt;stroke-linejoin:miter;stroke-miterlimit:10;stroke-dasharray:none;stroke-opacity:1"
                 id="path4502"
                 inkscape:connector-curvature="0" /></g></g></g></g></g><g
       id="g4504"><g
         id="g4506"
         clip-path="url(#clipPath4508)"><g
           id="g4512"
           transform="translate(402.7246,458.9541)"><path
             d="m 0,0 c 0,-43.914 -35.597,-79.506 -79.511,-79.506 -43.91,0 -79.51,35.592 -79.51,79.506 0,43.915 35.6,79.519 79.51,79.519 C -35.597,79.519 0,43.915 0,0"
             style="fill:#77a8d6;fill-opacity:1;fill-rule:nonzero;stroke:none"
             id="path4514"
             inkscape:connector-curvature="0" /></g><g
           id="g4516"
           transform="translate(402.7246,458.9541)"><path
             d="m 0,0 c 0,-43.914 -35.597,-79.506 -79.511,-79.506 -43.91,0 -79.51,35.592 -79.51,79.506 0,43.915 35.6,79.519 79.51,79.519 C -35.597,79.519 0,43.915 0,0 Z"
             style="fill:none;stroke:#000000;stroke-width:34.07500076;stroke-linecap:butt;stroke-linejoin:miter;stroke-miterlimit:10;stroke-dasharray:none;stroke-opacity:1"
             id="path4518"
             inkscape:connector-curvature="0" /></g><g
           id="g4520"
           transform="translate(402.7246,458.9541)"><path
             d="m 0,0 c 0,-43.914 -35.597,-79.506 -79.511,-79.506 -43.91,0 -79.51,35.592 -79.51,79.506 0,43.915 35.6,79.519 79.51,79.519 C -35.597,79.519 0,43.915 0,0"
             style="fill:#3e78a3;fill-opacity:1;fill-rule:nonzero;stroke:none"
             id="path4522"
             inkscape:connector-curvature="0" /></g><g
           id="g4524"
           transform="translate(388.7793,497.8447)"><path
             d="m 0,0 c 0,-21.527 -17.454,-38.976 -38.979,-38.976 -21.525,0 -38.976,17.449 -38.976,38.976 0,21.528 17.451,38.977 38.976,38.977 C -17.454,38.977 0,21.528 0,0"
             style="fill:#00324b;fill-opacity:1;fill-rule:nonzero;stroke:none"
             id="path4526"
             inkscape:connector-curvature="0" /></g><g
           id="g4528"><g
             id="g4530" /><g
             id="g4536"><g
               clip-path="url(#clipPath4532)"
               id="g4538"
               style="opacity:0.39999402"><g
                 transform="translate(401.1709,491.5918)"
                 id="g4540"><path
                   d="m 0,0 c 0,-29.406 -23.84,-53.243 -53.245,-53.243 -29.403,0 -53.238,23.837 -53.238,53.243 0,29.403 23.835,53.24 53.238,53.24 C -23.84,53.24 0,29.403 0,0 Z"
                   style="fill:none;stroke:#99999a;stroke-width:12.39099979;stroke-linecap:butt;stroke-linejoin:miter;stroke-miterlimit:10;stroke-dasharray:none;stroke-opacity:1"
                   id="path4542"
                   inkscape:connector-curvature="0" /></g></g></g></g><g
           id="g4544"><g
             id="g4546" /><g
             id="g4552"><g
               clip-path="url(#clipPath4548)"
               id="g4554"
               style="opacity:0.39999402"><g
                 transform="translate(402.7246,482.314)"
                 id="g4556"><path
                   d="m 0,0 c 0,-35.636 -28.893,-64.527 -64.53,-64.527 -35.636,0 -64.528,28.891 -64.528,64.527 0,35.636 28.892,64.532 64.528,64.532 C -28.893,64.532 0,35.636 0,0 Z"
                   style="fill:none;stroke:#cfd3d6;stroke-width:12.39099979;stroke-linecap:butt;stroke-linejoin:miter;stroke-miterlimit:10;stroke-dasharray:none;stroke-opacity:1"
                   id="path4558"
                   inkscape:connector-curvature="0" /></g></g></g></g><g
           id="g4560"><g
             id="g4562" /><g
             id="g4568"><g
               clip-path="url(#clipPath4564)"
               id="g4570"
               style="opacity:0.39999402"><g
                 transform="translate(368.6777,514.6396)"
                 id="g4572"><path
                   d="m 0,0 c 23.319,-18.421 24.569,-55.707 2.79,-83.274 -21.787,-27.578 -58.346,-34.983 -81.671,-16.566 -23.317,18.426 -24.57,55.714 -2.78,83.284 C -59.882,11.012 -23.319,18.431 0,0"
                   style="fill:#ffffff;fill-opacity:1;fill-rule:nonzero;stroke:none"
                   id="path4574"
                   inkscape:connector-curvature="0" /></g></g></g></g><g
           id="g4576"><g
             id="g4578" /><g
             id="g4584"><g
               clip-path="url(#clipPath4580)"
               id="g4586"
               style="opacity:0.30000299"><g
                 transform="translate(368.6777,514.6396)"
                 id="g4588"><path
                   d="m 0,0 c 23.319,-18.421 24.569,-55.707 2.79,-83.274 -21.787,-27.578 -58.346,-34.983 -81.671,-16.566 -23.317,18.426 -24.57,55.714 -2.78,83.284 C -59.882,11.012 -23.319,18.431 0,0"
                   style="fill:#ffffff;fill-opacity:1;fill-rule:nonzero;stroke:none"
                   id="path4590"
                   inkscape:connector-curvature="0" /></g></g></g></g><g
           id="g4592"
           transform="translate(402.7246,458.9541)"><path
             d="m 0,0 c 0,-43.914 -35.597,-79.506 -79.511,-79.506 -43.91,0 -79.51,35.592 -79.51,79.506 0,43.915 35.6,79.519 79.51,79.519 C -35.597,79.519 0,43.915 0,0 Z"
             style="fill:none;stroke:#000000;stroke-width:34.07500076;stroke-linecap:butt;stroke-linejoin:miter;stroke-miterlimit:10;stroke-dasharray:none;stroke-opacity:1"
             id="path4594"
             inkscape:connector-curvature="0" /></g><g
           id="g4596"
           transform="translate(301.4658,500.3086)"><path
             d="m 0,0 c 0,-3.753 -3.032,-6.783 -6.783,-6.783 -3.741,0 -6.777,3.03 -6.777,6.783 0,3.744 3.036,6.782 6.777,6.782 C -3.032,6.782 0,3.744 0,0"
             style="fill:#ffffff;fill-opacity:1;fill-rule:nonzero;stroke:none"
             id="path4598"
             inkscape:connector-curvature="0" /></g><g
           id="g4600"
           transform="translate(517.2754,459.5366)"><path
             d="m 0,0 c 0,-43.914 35.598,-79.508 79.504,-79.508 43.92,0 79.514,35.594 79.514,79.508 0,43.915 -35.594,79.517 -79.514,79.517 C 35.598,79.517 0,43.915 0,0"
             style="fill:#77a8d6;fill-opacity:1;fill-rule:nonzero;stroke:none"
             id="path4602"
             inkscape:connector-curvature="0" /></g><g
           id="g4604"
           transform="translate(517.2754,459.5366)"><path
             d="m 0,0 c 0,-43.914 35.598,-79.508 79.504,-79.508 43.92,0 79.514,35.594 79.514,79.508 0,43.915 -35.594,79.517 -79.514,79.517 C 35.598,79.517 0,43.915 0,0 Z"
             style="fill:none;stroke:#000000;stroke-width:34.07500076;stroke-linecap:butt;stroke-linejoin:miter;stroke-miterlimit:10;stroke-dasharray:none;stroke-opacity:1"
             id="path4606"
             inkscape:connector-curvature="0" /></g><g
           id="g4608"
           transform="translate(517.2754,459.5366)"><path
             d="m 0,0 c 0,-43.914 35.598,-79.508 79.504,-79.508 43.92,0 79.514,35.594 79.514,79.508 0,43.915 -35.594,79.517 -79.514,79.517 C 35.598,79.517 0,43.915 0,0"
             style="fill:#3e78a3;fill-opacity:1;fill-rule:nonzero;stroke:none"
             id="path4610"
             inkscape:connector-curvature="0" /></g><g
           id="g4612"
           transform="translate(531.2207,498.4253)"><path
             d="m 0,0 c 0,-21.525 17.453,-38.974 38.975,-38.974 21.527,0 38.98,17.449 38.98,38.974 0,21.528 -17.453,38.977 -38.98,38.977 C 17.453,38.977 0,21.528 0,0"
             style="fill:#00324b;fill-opacity:1;fill-rule:nonzero;stroke:none"
             id="path4614"
             inkscape:connector-curvature="0" /></g><g
           id="g4616"><g
             id="g4618" /><g
             id="g4624"><g
               clip-path="url(#clipPath4620)"
               id="g4626"
               style="opacity:0.39999402"><g
                 transform="translate(518.8301,492.1699)"
                 id="g4628"><path
                   d="m 0,0 c 0,-29.404 23.836,-53.241 53.244,-53.241 29.404,0 53.242,23.837 53.242,53.241 0,29.405 -23.838,53.242 -53.242,53.242 C 23.836,53.242 0,29.405 0,0 Z"
                   style="fill:none;stroke:#99999a;stroke-width:12.39099979;stroke-linecap:butt;stroke-linejoin:miter;stroke-miterlimit:10;stroke-dasharray:none;stroke-opacity:1"
                   id="path4630"
                   inkscape:connector-curvature="0" /></g></g></g></g><g
           id="g4632"><g
             id="g4634" /><g
             id="g4640"><g
               clip-path="url(#clipPath4636)"
               id="g4642"
               style="opacity:0.39999402"><g
                 transform="translate(517.2754,482.8945)"
                 id="g4644"><path
                   d="m 0,0 c 0,-35.636 28.895,-64.527 64.523,-64.527 35.643,0 64.536,28.891 64.536,64.527 0,35.636 -28.893,64.53 -64.536,64.53 C 28.895,64.53 0,35.636 0,0 Z"
                   style="fill:none;stroke:#cfd3d6;stroke-width:12.39099979;stroke-linecap:butt;stroke-linejoin:miter;stroke-miterlimit:10;stroke-dasharray:none;stroke-opacity:1"
                   id="path4646"
                   inkscape:connector-curvature="0" /></g></g></g></g><g
           id="g4648"><g
             id="g4650" /><g
             id="g4656"><g
               clip-path="url(#clipPath4652)"
               id="g4658"
               style="opacity:0.39999402"><g
                 transform="translate(551.3203,515.2227)"
                 id="g4660"><path
                   d="m 0,0 c -23.322,-18.424 -24.572,-55.709 -2.787,-83.277 21.781,-27.577 58.344,-34.985 81.67,-16.566 23.316,18.424 24.568,55.715 2.781,83.289 C 59.885,11.012 23.314,18.428 0,0"
                   style="fill:#ffffff;fill-opacity:1;fill-rule:nonzero;stroke:none"
                   id="path4662"
                   inkscape:connector-curvature="0" /></g></g></g></g><g
           id="g4664"><g
             id="g4666" /><g
             id="g4672"><g
               clip-path="url(#clipPath4668)"
               id="g4674"
               style="opacity:0.30000299"><g
                 transform="translate(551.3203,515.2227)"
                 id="g4676"><path
                   d="m 0,0 c -23.322,-18.424 -24.572,-55.709 -2.787,-83.277 21.781,-27.577 58.344,-34.985 81.67,-16.566 23.316,18.424 24.568,55.715 2.781,83.289 C 59.885,11.012 23.314,18.428 0,0"
                   style="fill:#ffffff;fill-opacity:1;fill-rule:nonzero;stroke:none"
                   id="path4678"
                   inkscape:connector-curvature="0" /></g></g></g></g><g
           id="g4680"
           transform="translate(517.2754,459.5366)"><path
             d="m 0,0 c 0,-43.914 35.598,-79.508 79.504,-79.508 43.92,0 79.514,35.594 79.514,79.508 0,43.915 -35.594,79.517 -79.514,79.517 C 35.598,79.517 0,43.915 0,0 Z"
             style="fill:none;stroke:#000000;stroke-width:34.07500076;stroke-linecap:butt;stroke-linejoin:miter;stroke-miterlimit:10;stroke-dasharray:none;stroke-opacity:1"
             id="path4682"
             inkscape:connector-curvature="0" /></g><g
           id="g4684"
           transform="translate(551.5527,493.5254)"><path
             d="m 0,0 c 0,-3.749 3.031,-6.781 6.779,-6.781 3.742,0 6.78,3.032 6.78,6.781 0,3.746 -3.038,6.783 -6.78,6.783 C 3.031,6.783 0,3.746 0,0"
             style="fill:#ffffff;fill-opacity:1;fill-rule:nonzero;stroke:none"
             id="path4686"
             inkscape:connector-curvature="0" /></g><g
           id="g4688"
           transform="translate(423.1689,549.5508)"><path
             d="m 0,0 c 4.63,-22.959 11.553,-74.212 -27.602,-74.212 -16.648,0 -26.214,55.704 -58.308,58.971 -43.386,4.418 -93.556,-41.954 -93.556,-28.49 0,23.419 64.339,65.596 103.495,65.596 C -36.817,21.865 -4.411,21.886 0,0"
             style="fill:#000000;fill-opacity:1;fill-rule:nonzero;stroke:none"
             id="path4690"
             inkscape:connector-curvature="0" /></g><g
           id="g4692"
           transform="translate(496.834,549.459)"><path
             d="m 0,0 c -4.637,-22.957 -11.558,-74.21 27.602,-74.21 16.642,0 26.214,55.704 58.302,58.971 43.389,4.416 93.555,-41.952 93.555,-28.49 0,23.42 -64.334,65.597 -103.494,65.597 C 36.814,21.868 4.408,21.888 0,0"
             style="fill:#000000;fill-opacity:1;fill-rule:nonzero;stroke:none"
             id="path4694"
             inkscape:connector-curvature="0" /></g><g
           id="g4696"
           transform="translate(517.8184,470.9771)"><path
             d="m 0,0 c 0,-34.765 -26.114,36.246 -58.322,36.246 -32.211,0 -58.325,-71.011 -58.325,-36.246 0,34.764 26.114,62.946 58.325,62.946 C -26.114,62.946 0,34.764 0,0"
             style="fill:#000000;fill-opacity:1;fill-rule:nonzero;stroke:none"
             id="path4698"
             inkscape:connector-curvature="0" /></g><g
           id="g4700"
           transform="translate(486.332,533.9233)"><path
             d="m 0,0 c 0,-14.822 -12.02,-26.833 -26.836,-26.833 -14.819,0 -26.834,12.011 -26.834,26.833 0,14.82 12.015,26.832 26.834,26.832 C -12.02,26.832 0,14.82 0,0"
             style="fill:#b3b3b3;fill-opacity:1;fill-rule:nonzero;stroke:none"
             id="path4702"
             inkscape:connector-curvature="0" /></g><g
           id="g4704"
           transform="translate(486.332,533.9233)"><path
             d="m 0,0 c 0,-14.822 -12.02,-26.833 -26.836,-26.833 -14.819,0 -26.834,12.011 -26.834,26.833 0,14.82 12.015,26.832 26.834,26.832 C -12.02,26.832 0,14.82 0,0 Z"
             style="fill:none;stroke:#000000;stroke-width:21.68400002;stroke-linecap:butt;stroke-linejoin:miter;stroke-miterlimit:10;stroke-dasharray:none;stroke-opacity:1"
             id="path4706"
             inkscape:connector-curvature="0" /></g><g
           id="g4708"
           transform="translate(479.5918,533.9233)"><path
             d="m 0,0 c 0,-11.103 -9,-20.101 -20.096,-20.101 -11.099,0 -20.103,8.998 -20.103,20.101 0,11.102 9.004,20.099 20.103,20.099 C -9,20.099 0,11.102 0,0 Z"
             style="fill:none;stroke:#6a7982;stroke-width:3.09800005;stroke-linecap:butt;stroke-linejoin:miter;stroke-miterlimit:10;stroke-dasharray:none;stroke-opacity:1"
             id="path4710"
             inkscape:connector-curvature="0" /></g><g
           id="g4712"
           transform="translate(517.2754,458.8687)"><path
             d="m 0,0 c 0,-43.91 35.598,-79.512 79.504,-79.512 43.92,0 79.514,35.602 79.514,79.512 0,43.913 -35.594,79.511 -79.514,79.511 C 35.598,79.511 0,43.913 0,0 Z"
             style="fill:none;stroke:#939393;stroke-width:6.19500017;stroke-linecap:butt;stroke-linejoin:miter;stroke-miterlimit:10;stroke-dasharray:none;stroke-opacity:1"
             id="path4714"
             inkscape:connector-curvature="0" /></g><g
           id="g4716"
           transform="translate(508.4395,458.8643)"><path
             d="m 0,0 c 0,-48.786 39.555,-88.34 88.34,-88.34 48.793,0 88.351,39.554 88.351,88.34 0,48.794 -39.558,88.352 -88.351,88.352 C 39.555,88.352 0,48.794 0,0 Z"
             style="fill:none;stroke:#4e4e4e;stroke-width:3.09800005;stroke-linecap:butt;stroke-linejoin:miter;stroke-miterlimit:10;stroke-dasharray:none;stroke-opacity:1"
             id="path4718"
             inkscape:connector-curvature="0" /></g><g
           id="g4720"
           transform="translate(243.7031,458.8687)"><path
             d="m 0,0 c 0,-43.91 35.601,-79.512 79.511,-79.512 43.914,0 79.51,35.602 79.51,79.512 0,43.913 -35.596,79.511 -79.51,79.511 C 35.601,79.511 0,43.913 0,0 Z"
             style="fill:none;stroke:#939393;stroke-width:6.19500017;stroke-linecap:butt;stroke-linejoin:miter;stroke-miterlimit:10;stroke-dasharray:none;stroke-opacity:1"
             id="path4722"
             inkscape:connector-curvature="0" /></g><g
           id="g4724"
           transform="translate(234.8691,458.8643)"><path
             d="m 0,0 c 0,-48.786 39.555,-88.34 88.343,-88.34 48.793,0 88.346,39.554 88.346,88.34 0,48.794 -39.553,88.352 -88.346,88.352 C 39.555,88.352 0,48.794 0,0 Z"
             style="fill:none;stroke:#4e4e4e;stroke-width:3.09800005;stroke-linecap:butt;stroke-linejoin:miter;stroke-miterlimit:10;stroke-dasharray:none;stroke-opacity:1"
             id="path4726"
             inkscape:connector-curvature="0" /></g><g
           id="g4728"
           transform="translate(290.0215,484.4497)"><path
             d="m 0,0 c -4.224,-5.627 -9.997,-8.428 -12.897,-6.254 -2.898,2.18 -1.829,8.505 2.397,14.132 4.219,5.627 9.993,8.423 12.893,6.249 C 5.292,11.95 4.224,5.628 0,0"
             style="fill:#ffffff;fill-opacity:1;fill-rule:nonzero;stroke:none"
             id="path4730"
             inkscape:connector-curvature="0" /></g><g
           id="g4732"
           transform="translate(554.3047,476.7236)"><path
             d="m 0,0 c -4.229,-5.627 -9.994,-8.421 -12.896,-6.25 -2.899,2.178 -1.829,8.505 2.396,14.13 4.219,5.627 9.998,8.426 12.895,6.246 C 5.293,11.956 4.221,5.63 0,0"
             style="fill:#ffffff;fill-opacity:1;fill-rule:nonzero;stroke:none"
             id="path4734"
             inkscape:connector-curvature="0" /></g><g
           id="g4736"
           transform="translate(405.0254,560.7554)"><path
             d="m 0,0 c 0,0 4.306,2.464 9.274,-4.494 4.969,-6.958 3.977,-14.466 3.646,-15.575 -0.332,-1.101 -10.979,-26.764 -18.27,-29.084 0,0 -6.807,11 -12.657,13.751 C -6.295,-30.667 -0.333,-15.095 0,0"
             style="fill:#6e6e6e;fill-opacity:1;fill-rule:nonzero;stroke:none"
             id="path4738"
             inkscape:connector-curvature="0" /></g><g
           id="g4740"
           transform="translate(405.0254,560.7554)"><path
             d="m 0,0 c 0,0 4.306,2.464 9.274,-4.494 4.969,-6.958 3.977,-14.466 3.646,-15.575 -0.332,-1.101 -10.979,-26.764 -18.27,-29.084 0,0 -6.807,11 -12.657,13.751 C -6.295,-30.667 -0.333,-15.095 0,0"
             style="fill:#393939;fill-opacity:1;fill-rule:nonzero;stroke:none"
             id="path4742"
             inkscape:connector-curvature="0" /></g><g
           id="g4744"
           transform="translate(506.4531,559.4321)"><path
             d="m 0,0 c 0,0 -4.944,0.362 -6.433,-8.059 -1.487,-8.42 2.652,-14.77 3.42,-15.623 0.776,-0.854 15.423,-18.724 23.005,-17.678 0,0 10.274,12.682 17.559,15.851 C 24.941,-26.277 6.805,-13.488 0,0"
             style="fill:#393939;fill-opacity:1;fill-rule:nonzero;stroke:none"
             id="path4746"
             inkscape:connector-curvature="0" /></g><g
           id="g4748"
           transform="translate(465.7881,546.8398)"><path
             d="m 0,0 c 0,-1.645 -1.333,-2.98 -2.979,-2.98 -1.649,0 -2.981,1.335 -2.981,2.98 0,1.651 1.332,2.985 2.981,2.985 C -1.333,2.985 0,1.651 0,0"
             style="fill:#ffffff;fill-opacity:1;fill-rule:nonzero;stroke:none"
             id="path4750"
             inkscape:connector-curvature="0" /></g><g
           id="g4752"
           transform="translate(470.4932,540.1367)"><path
             d="m 0,0 c -0.833,-0.925 -3.173,-0.189 -5.208,1.658 -2.043,1.844 -3.009,4.091 -2.176,5.017 0.84,0.929 3.182,0.186 5.215,-1.654 C -0.131,3.177 0.837,0.926 0,0"
             style="fill:#ffffff;fill-opacity:1;fill-rule:nonzero;stroke:none"
             id="path4754"
             inkscape:connector-curvature="0" /></g></g></g><text
       transform="matrix(1,0,0,-1,252.4482,199.8701)"
       style="font-variant:normal;font-weight:300;font-stretch:normal;font-size:178.69470215px;font-family:'Futura Std Light';-inkscape-font-specification:FuturaStd-Light;writing-mode:lr-tb;fill:#ffffff;fill-opacity:1;fill-rule:nonzero;stroke:none"
       id="text4756"><tspan
         x="0 132.94885 249.99388"
         y="0"
         sodipodi:role="line"
         id="tspan4758">SVG</tspan></text>
<text
       transform="matrix(0.9999999,4.5007465e-4,4.5007465e-4,-0.9999999,204.0563,111.4635)"
       style="font-variant:normal;font-weight:300;font-stretch:normal;font-size:84.87480927px;font-family:'Futura Std Light';-inkscape-font-specification:FuturaStd-Light;writing-mode:lr-tb;fill:#9dafc6;fill-opacity:1;fill-rule:nonzero;stroke:none"
       id="text4760"><tspan
         x="0 88.524422 153.02928 206.75504 243.5907 308.68967 373.19452 407.90833 471.30981"
         y="0"
         sodipodi:role="line"
         id="tspan4762">Navigator</tspan></text>
</g></svg>